/* XPM */
static char *result[] = {
/* columns rows colors chars-per-pixel */
"64 64 167 2 ",
"   c #0F0E0D",
".  c #100F0E",
"X  c #12110F",
"o  c #161514",
"O  c #181715",
"+  c #1B1917",
"@  c #1D1C1A",
"#  c #211F1C",
"$  c #232013",
"%  c #23211E",
"&  c #312B13",
"*  c #262423",
"=  c #292624",
"-  c #2C2926",
";  c #2E2C2B",
":  c #322E2B",
">  c #35302D",
",  c #343332",
"<  c #3C3937",
"1  c #3D3C3A",
"2  c #423A34",
"3  c #423E3D",
"4  c #504611",
"5  c #6D5D10",
"6  c #43403F",
"7  c #4B433C",
"8  c #454443",
"9  c #4A4744",
"0  c #4D4947",
"q  c #4D4C4B",
"w  c #534B42",
"e  c #594F46",
"r  c #514D4C",
"t  c #5C4E48",
"y  c #5B5047",
"u  c #5C524B",
"i  c #535251",
"p  c #5C5957",
"a  c #5C5C5B",
"s  c #5A5453",
"d  c #62574D",
"f  c #64584E",
"g  c #625D5B",
"h  c #6A5E55",
"j  c #62605F",
"k  c #706357",
"l  c #74665B",
"z  c #76685C",
"x  c #796A5E",
"c  c #646463",
"v  c #6B6563",
"b  c #6C6C6C",
"n  c #746D6B",
"m  c #756B61",
"M  c #74716F",
"N  c #78706D",
"B  c #747474",
"V  c #7B7471",
"C  c #7B7B7B",
"Z  c #83710F",
"A  c #87766A",
"S  c #817366",
"D  c #887F76",
"F  c #827C74",
"G  c #927471",
"H  c #9E870F",
"J  c #BAA00E",
"K  c #DBBC0D",
"L  c #F3D10D",
"P  c #F2CF15",
"I  c #F4D32A",
"U  c #918377",
"Y  c #998779",
"T  c #A08D7C",
"R  c #F6DC5B",
"E  c #F7E174",
"W  c #838383",
"Q  c #8C8482",
"!  c #8E8D8D",
"~  c #908786",
"^  c #948A89",
"/  c #988E8C",
"(  c #988D83",
")  c #9F938F",
"_  c #979797",
"`  c #9F9490",
"'  c #9C9C9C",
"]  c #A49180",
"[  c #A1948D",
"{  c #AA9685",
"}  c #B29E8C",
"|  c #A29691",
" . c #AA9C95",
".. c #AEA097",
"X. c #B3A394",
"o. c #BBA592",
"O. c #B3A29A",
"+. c #BCAA9F",
"@. c #A5A5A4",
"#. c #ACA6A4",
"$. c #AFA9A7",
"%. c #AEADAD",
"&. c #B3ADAC",
"*. c #B0B0AF",
"=. c #B2B2B2",
"-. c #BBB5B4",
";. c #BDB8B7",
":. c #BCBCBC",
">. c #C29994",
",. c #C0AA97",
"<. c #C5AD99",
"1. c #CBB4A2",
"2. c #D2BCA7",
"3. c #C1BDBC",
"4. c #F4BFBA",
"5. c #F8BFBA",
"6. c #F9E793",
"7. c #DAC3AD",
"8. c #E2C6B0",
"9. c #E0CAB3",
"0. c #ECCFB8",
"q. c #F6C6BC",
"w. c #F9C2BC",
"e. c #F6CDBC",
"r. c #F9ECA7",
"t. c #C3C2C1",
"y. c #CCCBCB",
"u. c #C8C4C3",
"i. c #D3D2D2",
"p. c #D9D6D5",
"a. c #DCDBDB",
"s. c #F9C6C1",
"d. c #F9CAC5",
"f. c #E9D5C4",
"g. c #FAD1CD",
"h. c #F4D9C2",
"j. c #E1DFDE",
"k. c #FBD5D2",
"l. c #FBDAD6",
"z. c #FBDEDC",
"x. c #F3DAD8",
"c. c #F6E1CF",
"v. c #FBF2C5",
"b. c #E1E0DF",
"n. c #EFE5DC",
"m. c #F6E1D0",
"M. c #F7E6DA",
"N. c #FAE3DB",
"B. c #F9E9DD",
"V. c #E4E4E4",
"C. c #E9E7E6",
"Z. c #EAE8E7",
"A. c #EDECEC",
"S. c #FCE7E5",
"D. c #F5ECE5",
"F. c #FAEEE5",
"G. c #F0EEEE",
"H. c #FDEDEC",
"J. c linen",
"K. c #FDF8E1",
"L. c #FBF2EC",
"P. c #FDFAEA",
"I. c #F5F5F4",
"U. c #FCF7F4",
"Y. c #FDFAF5",
"T. c #FEFDFD",
"R. c None",
/* pixels */
"R.R.R.R.R.R.R.R.R.R.R.R.R.R.R.R.R.R.R.R.R.R.R.R.R.R.R.R.R.R.R.R.R.R.R.R.R.R.R.R.R.R.R.R.R.R.R.R.R.R.R.R.R.R.R.R.R.R.R.R.R.R.R.R.",
"R.R.R.R.R.R.R.R.R.R.R.R.R.R.R.R.R.R.R.R.R.R.R.R.R.R.R.R.R.R.R.R.R.R.R.R.R.R.R.R.R.R.R.R.R.R.R.R.R.R.R.R.R.R.R.R.R.R.R.R.R.R.R.R.",
"R.R.R.R.R.R.R.R.R.R.R.R.R.R.R.R.R.R.R.R.R.R.R.R.R.R.R.R.R.R.R.R.R.R.R.R.R.R.R.R.R.R.R.R.R.R.R.R.R.R.R.R.R.R.R.R.R.R.R.R.R.R.R.R.",
"R.R.R.R.R.R.R.R.R.R.R.R.R.R.R.R.R.R.R.R.R.R.R.R.R.R.R.R.R.R.R.R.R.R.R.R.R.R.N.F.R.R.R.R.R.R.R.R.R.R.R.R.R.R.R.R.R.R.R.R.R.R.R.R.",
"R.R.R.R.R.R.R.R.R.R.R.R.R.R.R.R.R.R.R.R.R.R.R.R.R.R.R.R.R.R.R.R.R.R.R.R.R.w.s.H.U.R.R.R.R.R.R.R.R.R.R.R.R.R.R.l.L.F.d.R.R.R.R.R.",
"R.R.R.R.R.R.R.R.R.R.R.R.R.R.R.R.R.R.R.R.R.R.R.R.R.R.R.R.R.R.R.R.R.R.R.R.R.R.w.d.T.Y.M.R.R.R.R.R.R.R.R.R.R.R.B.T.L.w.w.R.R.R.R.R.",
"R.R.R.R.R.R.R.R.R.R.R.R.R.R.R.R.R.R.R.R.R.R.R.R.R.R.R.R.R.R.R.R.R.R.R.R.R.R.w.w.l.T.T.M.R.R.R.R.R.R.R.R.R.F.Y.U.d.w.R.R.R.R.R.R.",
"R.R.R.R.R.R.R.R.R.R.R.R.R.R.R.R.R.R.R.R.R.R.R.R.R.R.R.R.R.R.R.R.R.R.R.R.R.R.w.w.w.H.T.T.J.L.L.L.F.[ Y 1.n.T.T.k.w.w.R.R.R.R.R.R.",
"R.R.R.R.R.R.R.R.R.R.R.R.R.R.R.R.R.R.R.R.R.R.R.R.R.R.R.R.R.R.R.R.R.R.R.R.R.R.e.w.w.z.T.T.T.T.T.T.T.b . @ i 7.z.5.5.R.R.R.R.R.R.R.",
"R.R.R.R.R.R.R.R.R.R.R.R.R.R.R.R.R.R.R.R.R.R.R.R.R.R.R.R.R.R.R.R.R.R.R.R.R.R.R.w.z.T.T.T.T.T.T.T.T.C . o o = G 4.w.R.R.R.R.R.R.R.",
"R.R.R.R.R.R.R.R.R.R.R.R.R.R.R.R.R.R.R.R.R.R.R.R.R.R.R.R.R.R.R.R.R.R.R.R.R.R.R.N.T.T.T.T.T.a.=.I.y.b o o o o + G 5.R.R.R.R.R.R.R.",
"R.R.R.R.R.R.R.R.R.R.R.R.R.R.R.R.R.R.R.R.R.R.R.R.R.R.R.R.R.R.R.R.R.R.R.R.R.R.2.a.T.T.T.T.T.=.C a.q 1 o o o o o # >.R.R.R.R.R.R.R.",
"R.R.R.R.R.R.R.R.R.R.R.R.R.R.R.R.R.R.R.R.R.R.R.R.R.R.R.R.R.R.R.R.R.R.R.R.R.R.d W T.T.T.T.T.:.' V.; o o o o o o X t R.R.R.R.R.R.R.",
"R.R.R.R.R.R.R.R.R.R.R.R.R.R.R.R.R.R.R.R.R.R.R.R.R.R.R.R.R.R.R.R.R.R.R.R.R.<.# i I.T.T.T.T.T.I.i.* o X X o o o o * R.R.R.R.R.R.R.",
"R.R.R.R.R.R.R.R.R.R.R.R.R.R.R.R.R.R.R.R.R.R.R.R.R.R.R.R.R.R.R.R.R.R.R.R.R.y o , A.T.Y.r.6.Y.T.:.% & 5 5 o o o o o A R.R.R.R.R.R.",
"R.R.R.R.R.R.R.R.R.R.R.R.R.R.R.R.R.R.R.R.R.R.R.R.R.R.R.R.R.R.R.R.R.R.R.R.U o o % a.T.K.I P v.Y.a.; 4 P K & o o o o 7 R.R.R.R.R.R.",
"R.R.R.R.R.R.R.R.R.R.R.R.R.R.R.R.R.R.R.R.R.S z z l h e 3 2 > = # i A.T.I.C . o o *.T.Y.E R P.T.T.! & J H @ o o X + a R.R.R.R.R.R.",
"R.R.R.R.R.R.R.R.R.R.R.R.R.R.R.X.l 2 * O o o o O o o o o o o o o q G.I.T.:.@ o o B T.T.Y.Y.H.g.g.n.@.q - O o * a =.A.R.R.R.R.R.R.",
"R.R.R.R.R.R.R.R.R.R.R.R.R.%.8 @ o o o o o o o o o o o o o o o o 8 t.@.W j ; @ O , b.T.T.T.H.s.w.M.T.G.i.C ; 6 a b W ( } R.R.R.R.",
"R.R.R.R.R.R.R.R.R.R.R.R.v @ o o o o o o o X o o X o o o o o o o @ a C ' ' W , @ o =.T.T.T.T.k.d.U.T.T.T.@.q c W ' ' C k u w w R.",
"R.R.R.R.R.R.R.R.R.R.R.i o o o O o o @ = : , 3 9 # o o o o o o o = @.W c j B c 1 a y.T.T.z.k.g.g.k.k.T.U.! i C C j c U o.7.9.R.R.",
"R.R.R.R.R.R.R.R.R.R.R.o o o o o o O g V n v g r # o o o o o o o o a ' ' b i W i.T.T.T.T.U.H.U.T.S.H.T.T.I.*.j v =.y.Y d 7 f T R.",
"R.R.R.R.R.R.R.R.R.R.% o o o O o o o + + o o + + % - 1 * o o o o o c a b =.C.T.T.T.T.T.T.T.T.T.T.T.T.T.T.T.T.G.:.b c ..8.8.o.Y R.",
"R.R.R.R.R.R.R.R.R.R.o o o o o O o o o o + g N V n n j ; o o o o o i i.I.T.T.T.T.T.T.T.T.T.T.T.T.T.T.T.T.T.T.T.T.I.:.h y { 0.R.R.",
"R.R.R.R.R.R.R.R.R.R.o o o O o o o o o o o @ % @ O o X o o o o o o i I.T.T.T.T.T.T.T.T.T.T.T.T.T.T.T.T.T.T.T.T.T.T.I.h.<.f y R.R.",
"R.R.R.R.R.R.R.R.R.+ o o o O O o o o o o o o o o O o o o o o o o o ; a.T.T.T.T.T.T.T.T.T.T.T.T.T.T.T.T.T.T.T.T.T.T.L.R.R.R.R.R.R.",
"R.R.R.R.R.R.R.R.R.o o o o o o o O o o o o o o O o o o o o o O o o O ' T.T.T.T.T.T.T.T.T.T.T.T.T.T.T.T.T.T.G.T.T.T.R.R.R.R.R.R.R.",
"R.R.R.R.R.R.R.R.R.. o o O o O O o o O o o o O o o o O o O o o o o o 1 b.T.T.T.T.T.T.T.Z.T.T.T.T.T.T.T.T.T.&.Z.T.Y.R.R.R.R.R.R.R.",
"R.R.R.R.R.R.R.R.R.. o o o O O o O o O o o O o o O o O o o O o o o o o b G.T.T.T.U.U.A.=.T.T.T.T.T.T.T.T.p.-.T.T.U.R.R.R.R.R.R.R.",
"R.R.R.R.R.R.R.R.R.o o o O o o o O o o o o o o o O o o o o o O o o o o @ _ T.T.T.p.u.I.$.A.T.T.T.T.T.T.T.#.a.T.T.F.R.R.R.R.R.R.R.",
"R.R.R.R.R.R.R.R.R.o o o o o o O o o o o O o o o o o O O O O o o o o o o = *.I.T.Z.$.A.3.j.T.T.T.p.a.T.i.*.T.T.Y.R.R.R.R.R.R.R.R.",
"R.R.R.R.R.R.R.R.R.@ o o o O O o o o o o o o o o O o o o o o o O o o o o o = :.T.T.u.3.I.T.T.T.T.;.p.C.#.Z.T.T.U.R.R.R.R.R.R.R.R.",
"R.R.R.R.R.R.R.R.R.: o o o o o o o o O 3 3 o o o o o o o o o o o o o o o o o 1 i.T.I.@.p.T.T.T.T.#.Z.b.j.T.T.T.B.R.R.R.R.R.R.R.R.",
"R.R.R.R.R.R.R.R.R.R.o o O o o o o - j v : o o o o o o o o o o o o o o o o o o 6 a.T.C.i.T.T.T.y.;.T.T.T.T.T.T.R.R.R.R.R.R.R.R.R.",
"R.R.R.R.R.R.R.R.R.R.o o o o o o : V 6 o o o o o o o o o 3 p : o o o o o o o o o i Z.T.T.T.T.I.&.Z.T.T.T.T.T.F.R.R.R.R.R.R.R.R.R.",
"R.R.R.R.R.R.R.R.R.R.o O o O o O g < o o o o o o o o o o = 0 v v ; o o o o o o o o c I.T.T.T.T.I.T.T.T.T.T.T.R.R.R.R.R.R.R.R.R.R.",
"R.R.R.R.R.R.R.R.R.R.+ o o o o o @ o o o O o o o X = 3 : + o + 3 B i O o o o o o o @ ! I.T.T.T.T.T.T.T.T.T.L.R.R.R.R.R.R.R.R.R.R.",
"R.R.R.R.R.R.R.R.R.R.% o o o o o o o o o o O O o X 3 j n V 0 @ o O q % o o o o o o o @ :.T.T.T.T.T.T.T.T.T.R.R.R.R.R.R.R.R.R.R.R.",
"R.R.R.R.R.R.R.R.R.R.: o o O o o o o o o o o o o o o o O - a v * o o o o o o o o o o o 8 b.T.T.T.T.T.T.T.L.R.R.R.R.R.R.R.R.R.R.R.",
"R.R.R.R.R.R.R.R.R.R.R.o o O o O o o o o O o o o o o o o o o : # o o o o o o o o o o o o C I.T.T.T.T.T.Y.R.R.R.R.R.R.R.R.R.R.R.R.",
"R.R.R.R.R.R.R.R.R.R.R.o o o o o O o o o O O o o o o o o o o o o o o O o O o o O o o o o % y.T.T.T.T.T.B.R.R.R.R.R.R.R.R.R.R.R.R.",
"R.R.R.R.R.R.R.R.R.R.R.o o o O o O o O o o o o O o o o O o o o o o o O o o O O o o O o o o c G.T.T.T.L.R.R.R.R.R.R.R.R.R.R.R.R.R.",
"R.R.R.R.R.R.R.R.R.R.R.o o o o o o o O o o O O o o o o o o o o o O o o o o o O o o o o o o * t.T.T.T.R.R.R.R.R.R.R.R.R.R.R.R.R.R.",
"R.R.R.R.R.R.R.R.R.R.R.o o o o o o O o o o o o o o o o o o o o o o o o O O o o o O O o o o o C T.T.Y.R.R.R.R.R.R.R.R.R.R.R.R.R.R.",
"R.R.R.R.R.R.R.R.R.R.R.o O o o O o O o O o o o o o o o o o o o o o o o o o o o o o o o O o o 1 A.T.U.R.R.R.R.R.R.R.R.R.R.R.R.R.R.",
"R.R.R.R.R.R.R.R.R.R.R.o o o O o o o o % r s 6 , - * * - : R.R.R.R.= o o o o o o o O o O o O # t.T.F.R.R.R.R.R.R.R.R.R.R.R.R.R.R.",
"R.R.R.R.R.R.R.R.R.R.R.O o O O o o o @ v ^ ^ ^ ~ Q Q R.R.R.R.R.R.R.R.R.O o o o o o O o o O o c A.T.R.R.R.R.R.R.R.R.R.R.R.R.R.R.R.",
"R.R.R.R.R.R.R.R.R.R.@ O X o o o O X t ^ ^ ^ ^ ~ ^ ^ R.R.R.R.R.R.R.R.R.R.o o o o O o o o o j A.T.T.R.R.R.R.R.R.R.R.R.R.R.R.R.R.R.",
"R.R.R.R.R.R.R.R.R.d o o o o o o o > R./ ^ ^ ^ ^ ^ / R.R.R.R.R.R.R.R.R.R.+ o o o o o o o a A.T.T.L.R.R.R.R.R.R.R.R.R.R.R.R.R.R.R.",
"R.R.R.R.R.R.R.R.R.y.' 8 o o o O % R.R.[ ^ ^ ^ ^ ^ R.R.R.R.R.R.R.R.R.R.R.R.o o o o o o * :.T.T.T.L.R.R.R.R.R.R.R.R.R.R.R.R.R.R.R.",
"R.R.R.R.R.R.R.R.T.T.T.V.9 o o @ R.R.R.R.^ ^ ^ ^ ^ R.R.R.R.R.R.R.R.R.R.R.R.o o o o o o 1 C.T.T.T.R.R.R.R.R.R.R.R.R.R.R.R.R.R.R.R.",
"R.R.R.R.R.R.R.U.T.T.T.T.*.@ * R.R.R.R.R.^ ^ ^ ^ / R.R.R.R.R.R.R.R.R.R.R.R.o o o o o o i I.T.T.T.R.R.R.R.R.R.R.R.R.R.R.R.R.R.R.R.",
"R.R.R.R.R.R.R.T.T.T.T.T.a.8 R.R.R.R.R.R.| ^ ^ ^ | R.R.R.R.R.R.R.R.R.R.R.R.R.o o o o o c T.T.T.T.R.R.R.R.R.R.R.R.R.R.R.R.R.R.R.R.",
"R.R.R.R.R.R.R.T.T.T.T.T.D.R.R.R.R.R.R.R.R.^ ^ ^ / R.R.R.R.R.R.R.R.R.R.R.R.R.o o o o o b T.T.T.T.R.R.R.R.R.R.R.R.R.R.R.R.R.R.R.R.",
"R.R.R.R.R.R.R.T.T.T.T.J.R.R.R.R.R.R.R.R.R. .^ ^ ^ ) R.R.R.R.R.R.R.R.R.R.R.R.# o o o . B T.T.T.T.R.R.R.R.R.R.R.R.R.R.R.R.R.R.R.R.",
"R.R.R.R.R.R.R.Y.T.T.L.R.R.R.R.R.R.R.R.R.R.R.[ ^ ^ ^ / R.R.R.R.R.R.R.R.R.R.R.R.o o o X N T.T.T.T.R.R.R.R.R.R.R.R.R.R.R.R.R.R.R.R.",
"R.R.R.R.R.R.R.Y.T.T.R.R.R.R.R.R.R.R.R.R.R.R.R...^ ^ ^ ^ R.R.R.R.R.R.R.R.R.R.R.o o o X x U.T.T.T.R.R.R.R.R.R.R.R.R.R.R.R.R.R.R.R.",
"R.R.R.R.R.R.R.U.T.T.R.R.R.R.R.R.R.R.R.R.R.R.R.R.R.+.O.O.R.R.R.R.R.R.R.R.R.R.R.= o o o d J.T.T.T.R.R.R.R.R.R.R.R.R.R.R.R.R.R.R.R.",
"R.R.R.R.R.R.R.R.T.T.U.R.R.R.R.R.R.R.R.R.R.R.R.R.R.R.R.R.R.R.R.R.R.R.R.R.R.R.R.R.o o o 2 f.Y.T.T.L.R.R.R.R.R.R.R.R.R.R.R.R.R.R.R.",
"R.R.R.R.R.R.R.R.U.T.R.R.R.R.R.R.R.R.R.R.R.R.R.R.R.R.R.R.R.R.R.R.R.R.R.R.R.R.R.R.- o o # ] B.T.T.T.B.R.R.R.R.R.R.R.R.R.R.R.R.R.R.",
"R.R.R.R.R.R.R.R.R.R.R.R.R.R.R.R.R.R.R.R.R.R.R.R.R.R.R.R.R.R.R.R.R.R.R.R.R.R.R.R.R.# o o - ,.c.F.F.c.R.R.R.R.R.R.R.R.R.R.R.R.R.R.",
"R.R.R.R.R.R.R.R.R.R.R.R.R.R.R.R.R.R.R.R.R.R.R.R.R.R.R.R.R.R.R.R.R.R.R.R.R.R.R.R.R.R.R.> - R.R.R.R.R.R.R.R.R.R.R.R.R.R.R.R.R.R.R.",
"R.R.R.R.R.R.R.R.R.R.R.R.R.R.R.R.R.R.R.R.R.R.R.R.R.R.R.R.R.R.R.R.R.R.R.R.R.R.R.R.R.R.R.R.R.R.R.R.R.R.R.R.R.R.R.R.R.R.R.R.R.R.R.R.",
"R.R.R.R.R.R.R.R.R.R.R.R.R.R.R.R.R.R.R.R.R.R.R.R.R.R.R.R.R.R.R.R.R.R.R.R.R.R.R.R.R.R.R.R.R.R.R.R.R.R.R.R.R.R.R.R.R.R.R.R.R.R.R.R."
};
