/* XPM */
static char *result[] = {
/* columns rows colors chars-per-pixel */
"64 64 234 2 ",
"   c #231E17",
".  c #241E19",
"X  c #281E19",
"o  c #252017",
"O  c #25211A",
"+  c #2B231C",
"@  c #32261E",
"#  c #3A281E",
"$  c #2C2522",
"%  c #2D2924",
"&  c #2E2A28",
"*  c #342A23",
"=  c #3B2C24",
"-  c #332D2A",
";  c #3A2F2B",
":  c #332721",
">  c #35302C",
",  c #3B322D",
"<  c #3B3026",
"1  c #3B3432",
"2  c #3E3934",
"3  c #3F3939",
"4  c #383332",
"5  c #42281F",
"6  c #432D24",
"7  c #492D22",
"8  c #43342B",
"9  c #4B352B",
"0  c #4D392E",
"q  c #453327",
"w  c #5C3B2D",
"e  c #52372B",
"r  c #423733",
"t  c #433A35",
"y  c #4A3D34",
"u  c #443D3A",
"i  c #4A3E3A",
"p  c #533E32",
"a  c #5A3E30",
"s  c #633D2F",
"d  c #46403D",
"f  c #4C423D",
"g  c #4F4137",
"h  c #53443C",
"j  c #594436",
"k  c #6C4435",
"l  c #674838",
"z  c #734D3E",
"x  c #734739",
"c  c #6A533D",
"v  c #76543C",
"b  c #4D4541",
"n  c #4F4942",
"m  c #524642",
"M  c #544A45",
"N  c #5A4C45",
"B  c #544D4A",
"V  c #5B4E4A",
"C  c #594540",
"Z  c #5C524C",
"A  c #595148",
"S  c #5D5552",
"D  c #5F5953",
"F  c #644E45",
"G  c #634E4A",
"H  c #645145",
"J  c #6C5345",
"K  c #63534C",
"L  c #6C544D",
"P  c #67584E",
"I  c #745345",
"U  c #745B4C",
"Y  c #765848",
"T  c #635652",
"R  c #645B54",
"E  c #6B5C54",
"W  c #655C5A",
"Q  c #6A5E5A",
"!  c #6F5651",
"~  c #725B53",
"^  c #7B5D53",
"/  c #7A5F59",
"(  c #724F40",
")  c #7D634C",
"_  c #7F6042",
"`  c #6C625C",
"'  c #67605D",
"]  c #73645C",
"[  c #7C645C",
"{  c #7A6658",
"}  c #6E6663",
"|  c #736761",
" . c #756B63",
".. c #7B6B63",
"X. c #776E68",
"o. c #7D736C",
"O. c #7D7264",
"+. c #7D7672",
"@. c #825B3E",
"#. c #86603E",
"$. c #845947",
"%. c #895F55",
"&. c #896548",
"*. c #9B734D",
"=. c #836356",
"-. c #8C6456",
";. c #83655C",
":. c #866B5B",
">. c #926B5B",
",. c #977357",
"<. c #8F6F4F",
"1. c #A76659",
"2. c #A07D52",
"3. c #836C63",
"4. c #8C6D63",
"5. c #966D61",
"6. c #84756C",
"7. c #8B746A",
"8. c #8B786C",
"9. c #867468",
"0. c #937264",
"q. c #9C7A65",
"w. c #98776B",
"e. c #837B75",
"r. c #8A7C74",
"t. c #867C76",
"y. c #977D73",
"u. c #A17B6C",
"i. c #A87766",
"p. c #B67768",
"a. c #A37D73",
"s. c #B1786B",
"d. c #A55957",
"f. c #8C8279",
"g. c #9C847A",
"h. c #958378",
"j. c #92806E",
"k. c #A38174",
"l. c #AB8878",
"z. c #B88979",
"x. c #B2927B",
"c. c #AC816D",
"v. c #C78878",
"b. c #C88B76",
"n. c #948B84",
"m. c #988B82",
"M. c #9C928A",
"N. c #9D9892",
"B. c #8A8580",
"V. c #A38D84",
"C. c #AC8D82",
"Z. c #B58D82",
"A. c #A3958B",
"S. c #A4988E",
"D. c #A89388",
"F. c #B79888",
"G. c #A39C94",
"H. c #AA9E94",
"J. c #A69C96",
"K. c #B39E93",
"L. c #ABA39C",
"P. c #B6A59B",
"I. c #BFA18C",
"U. c #B4AAA3",
"Y. c #BAADA3",
"T. c #B7ABA5",
"R. c #BCB3AA",
"E. c #BCB5AD",
"W. c #BCB9B3",
"Q. c #A9A6A2",
"!. c #C29583",
"~. c #C79B89",
"^. c #D39C87",
"/. c #C7A38E",
"(. c #D3A38D",
"). c #CBA591",
"_. c #CCAB95",
"`. c #C7AA97",
"'. c #D4AB95",
"]. c #CCB197",
"[. c #CDB39A",
"{. c #D3B59B",
"}. c #D3B89E",
"|. c #D4B196",
" X c #CDB5A3",
".X c #C4B4AC",
"XX c #CBB9A9",
"oX c #D3BCA4",
"OX c #D9BDA5",
"+X c #D4BEAA",
"@X c #D6BAA5",
"#X c #C3BDB5",
"$X c #C9BEB4",
"%X c #D3BEB3",
"&X c #C2AEA7",
"*X c #D5C3AC",
"=X c #DAC3AD",
"-X c #D5C0A7",
";X c #CBC4BC",
":X c #C9C4B9",
">X c #D5C4B3",
",X c #DBC6B2",
"<X c #D6C8B4",
"1X c #DBC9B5",
"2X c #DACDBB",
"3X c #D5C7BB",
"4X c #DCD1BE",
"5X c #CDCBC3",
"6X c #C8C8C4",
"7X c #D4CCC3",
"8X c #DBCEC2",
"9X c #D1CFC9",
"0X c #DDD2C2",
"qX c #D5D4CC",
"wX c #DCD4CB",
"eX c #D7D4CB",
"rX c #D6D9D3",
"tX c #DBDCD4",
"yX c #D9DEDA",
"uX c #D5D8D5",
"iX c #CED1CD",
"pX c #E3DDD3",
"aX c #E0D7CA",
"sX c #DDE3DC",
"dX c #DDE8DF",
"fX c #E1E5DD",
"gX c #E8E0D6",
"hX c #DEE5E1",
"jX c #E3ECE4",
"kX c #E4E9E3",
"lX c #E6F1EA",
"zX c #E9F2ED",
"xX c #EBF6F3",
"cX c None",
/* pixels */
"cXcXcXcXcXcXcXcXcXcXcXcXcXcXcXcXcXcXcXcXcXcXcXcXcXcXcXcXcXcXcXcXcXcXcXcXcXcXcXcXcXcXcXcXcXcXcXcXcXcXcXcXcXcXcXcXcXcXcXcXcXcXcXcX",
"cXcXcXcXcXcXcXcXcXcXcXcXcXcXcXcXcXcXcXcXcXcXcXcXcXcXcXcXcXcXcXcXcXcXcXcXcXcXcXcXcXcXcXcXcXcXcXcXcXcXcXcXcXcXcXcXcXcXcXcXcXcXcXcX",
"cXcXcXcXcXcXcXcXcXcXcXcXcXcXcXcXcXcXcXcXcXcXcXcXcXcXcXcXcXcXcXcXcXcXcXcXcXcXcXcXcXcXcXcXcXcXcXcXcXcXcXcXcXcXcXcX+.' n.cXcXcXcXcX",
"cXcXcXcXcXcXcXcXcXcXcXcXcXcXcXcXcXcXcXcXcXcXcXcXcXcXcXcXcXcXcXcXcXcXcXcXcXcXcXcXcXcXcXcXcXcXcXcXcXcXcXcXcXcXt.Q ' W o.cXcXcXcXcX",
"cXcXcX< $ $ -  .cXcXcXcXcXcXcXcXcXcXcXcXcXcXcXcXcXcXcXcXcXcXcXcXcXcXcXcXcXcXcXcXcXcXcXcXcXcXcXcXcXcXcXcXcX} W Q Q W 6.cXcXcXcXcX",
"cXcXcXt f r * % Z cXcXcXcXcXcXcXcXcXcXcXcXcXcXcXcXcXcXcXcXcXcXcXcXcXcXcXcXcXcXcXcXcXcXcXcXcXcXcXcXcXcXW.} ' Q Q Q | N.cXcXcXcXcX",
"cXcXcX$ * 8 f h , m W.cXcXcXcXcXcXcXcXcXcXcXcXcXcXcXcXcXcXcXcXcXcXcXcXcXcXcXcXcXcXcXcXcXcXcXcXcXcXcXQ.' ' ` ] ..3.| cXcXcXcXcXcX",
"cXcXcXcX* Z r < n B B T.cXcXcXcXcXcXcXcXcXcXcXcXcXcXcXcXcXcXcXcXcXcXcXcXcXcXcXcXcXcXcXcXcXcXcXcXcXN.S D Q } / / 3.[ cXcXcXcXcXcX",
"cXcXcXcX= r ] V * , A ` T.cXcXcXcXcXcXcXcXcXcXcXcXcXcXcXcXcXcXcXcXcXcXcXcXcXcXcXcXcXcXcXcXcXcXcXJ.S S T Q ] 3.w.y.3.cXcXcXcXcXcX",
"cXcXcXcX= 6 = N ` * + 2 X.cXcXcXcXcXcXcXcXcXcXcXcXcXcXcXcXcXcXcXcXcXcXcXcXcXcXcXcXcXcXcXcXcXcXJ.} B S T ~ 3.5.a.y.H.cXcXcXcXcXcX",
"cXcXcXcX6 8 6 * < ` t @ *  .cXcXcXcXcXcXcXcXcXcXcXcXcXcXcXcXcXcXcXcXcXcXcXcXcXcXcXcXcXcXcXcXcXB B S T T / ;.k.w.a.cXcXcXcXcXcXcX",
"cXcXcXcX: = q 9 ; = ` M $ % A cXcXcXcXcXcXcXcXcXcXcXcXcXcXcXcXcXcXcXcXcXcXcXcXcXcXcXcXcXcXcXD B B B L ~ 4.a.z.z.5.cXcXcXcXcXcXcX",
"cXcXcXcX@ 9 a e e 9 8 Z R * % M cXcXcXcXcXcXcXcXcXcXcXcXcXcXcXcXcXcXcXcXcXcXcXcXcXcXcXcXcXf.Z M G / 3.4.k./.s.1.7.cXcXcXcXcXcXcX",
"cXcXcXcXcX9 6 l I I l p A ` % % D cXcXcXcXcXcXcXcXcXcXcXcXcXcXcXcXcXcXcXcXcXcXcXcXcXcXcX} t.V V ! ;.%.u.l.~.`.w.cXcXcXcXcXcXcXcX",
"cXcXcXcXcX6 7 w l l z ( l j  .> , d N.cXcXcXcXcXcXcXcXcXcXcXcXcXcXcXcXcXcXcXcXcXcXcXcX} S f.B ! ;.5.a.~.!.z.l.0.cXcXcXcXcXcXcXcX",
"cXcXcXcXcX9 = 5 w l l I c j j ] , , d ] 9.R ] 6.S.G.N.n.t.6.f.o.] ' ` [ R M V A } R B B } +.K =.>.i.).%X+X`.u.4.cXcXcXcXcXcXcXcX",
"cXcXcXcXcXe 6 a ( %.>.$.$.x e 8 W 2 > - D h d d f ` A f f M N Z m m V Z M n n n S S S } } Q ! -.p.b.{.(.F..X5.D.cXcXcXcXcXcXcXcX",
"cXcXcXcXcXcX9 e e @.$.$.$.( a 8 * B 2 % - D 2 , r A t t t h M V i m m M M M b n B ' +.R t.G ^ 5.z.c.p.i.%.%.5.cXcXcXcXcXcXcXcXcX",
"cXcXcXcXcXcX6 q s s x x k k j e , + m 2 % > A * , R D i t i m M M b f V B S f B ' X.B.` +.K [ y.q.i.1.i.l.Z.z.cXcXcXcXcXcXcXcXcX",
"cXcXcXcXcXcX@ 5 7 s s s s e 9 9 = % % n 2 @ 2 d d A m M 1 1 f M K M n K V T } h X.' W o.Q ~ y.^ %.u.Z.l.5.i.5.cXcXcXcXcXcXcXcXcX",
"cXcXcXcXcXcXcX@ 5 7 s x k w e = O O O O f 2 O n f f 2 i 1 ; r i P K K Z +.n | M D ` M X.P r.L 3.y.5.5.-.^ 4.Y.cXcXcXcXcXcXcXcXcX",
"cXcXcXcXcXcXcXX 5 7 w s w e = : & O O O O B % > P t r , , - ; r N ! ! P f.A e.o.D Z ' R | ` ..r.U ^ %.=.;.y.cXcXcXcXcXcXcXcXcXcX",
"cXcXcXcXcXcXcX= X X # 7 = X . X & O   O O % f % K r r - , * - , h 3.:.] 8.6.` O.' f X.f. .| Q [ / / / ^ ^ 7.cXcXcXcXcXcXcXcXcXcX",
"cXcXcXcXcXcXcXcXX X + X X   $ - > > % O   o - 2 r r ; * - % * , ! 0.0.8.8.8... .f f M +.] L | 6.7.3.6.r.3.y.cXcXcXcXcXcXcXcXcXcX",
"cXcXcXcXcXcXcXcX: X . X       . O $ % 4 2 < O % + 2 + + % % 1 h U j.g.k.l.r.9.R u 2 n ' Z O.Z C F G ! 3.V.D.cXcXcXcXcXcXcXcXcXcX",
"cXcXcXcXcXcXcXcX9 +   .       . O O   O % 2 2 O O & % O $ $ , G =.x./.F.D.x.9.i 3 & d 2 D t r b m L 3.4.g.#XcXcXcXcXcXcXcXcXcXcX",
"cXcXcXcXcXcXcXcXcX*           .     - u > , d >   % 2 & % * t N w.I. X+X`.D.V.f & & % u B S D R G K ^ 7.g.T.cXcXcXcXcXcXcXcXcXcX",
"cXcXcXcXcXcXcXcXcXcX.             4 >   O O o % 4 O O > % * g ) /.[.+X=X3X XK.f & % 3 S > > 4 u S ~ L ! 4.g.T.cXcXcXcXcXcXcXcXcX",
"cXcXcXcXcXcXcXcXcXZ + o   o     & > . $ . . - d O   O % O > g c.[.+X,X,X0X8XT.Q - % & 4 B 4 4 u i m G L ;.4.y.&XcXcXcXcXcXcXcXcX",
"cXcXcXcXcXcXcXcXcX* O o     o o r o o o + . , + O O O O % > t x.@X=X,X1X0XtXU...1 % - - B B u r r i i C F ;.w.a.R.cXcXcXcXcXcXcX",
"cXcXcXcXcXcXcXcX, + + o       + @ o O + * < 8 * % o O O % d g /.=X,X,X1X8XrXH.o.t > t f t K ! H 3 3 u i m G 4.5.K.cXcXcXcXcXcXcX",
"cXcXcXcXcXcXcXh * + o + o o   o o O @ p c J 0 c h g % O + t c _.,X,X,X0XwXwXD.| M A H { d R 6.y.C 3 1 u u m ^ w.C.cXcXcXcXcXcXcX",
"cXcXcXcXcXcXcX< * * + o + o     o @ a #.<.v g _ _ _ 0 $ * h U @X,X,X1X8XaX8Xg.X.P { ) O.h D j.#XP d 3 3 u b E 5.a..XcXcXcXcXcXcX",
"cXcXcXcXcXcXcX* @ @ + + + + o   o # v *.<.v 9 *.&.*.v 6 * g q.,X1X1X1X8XaX7Xg.X.O.9.U O.h P j.j.P d 3 d b B K 3.C..XcXcXcXcXcXcX",
"cXcXcXcXcXcXcX= + + * + + + o o o o k c.<.) c &.&.*.@.j * p x.,X1X,X1XaXwXR.n.X.E j.) =.) O.) { m u d d b M ! ;.a..XcXcXcXcXcXcX",
"cXcXcXcXcXcXcX= + + $ + + + + + o o < #.*.<.#.@.*.&.$.p = F `.,X,X,X2XaXwXK.r...A J :.U ) ) ) c d u d d m T ! 7.C.P.cXcXcXcXcXcX",
"cXcXcXcXcXcXcX* + @ + @ $ + + o o o o q #.*.2.*.&.@.v q = I +X,X,X,X,X8X8XK.X.} N K c I ) I N u u 3 3 n R ..| w.Z.&XcXcXcXcXcXcX",
"cXcXcXcXcXcXcX< = @ @ @ + + + X o o o o # j v v c j # * 8 0.,X,X,X,X,X8X8XT.X.G N i t i f f u 3 u 3 u n N ~ y.y.C.;XcXcXcXcXcXcX",
"cXcXcXcXcXcXcX< * * @ @ : + + o o o o o o + @ * @ * @ * J _.,X,X=X,X,X8XwX5X6.Q u 4 r 1 > 4 4 4 2 3 u b M L / y.P.3XcXcXcXcXcXcX",
"cXcXcXcXcXcXcXq # * @ @ + + +   o o o o o o + + + * * c ~.OX=X,X,X,X,X8XwXpXJ.] i 4 1 > > - - 4 2 2 u b G G / l.K.7XcXcXcXcXcXcX",
"cXcXcXcXcXcXcX0 = = @ @ @ + + + o + o o   o + + @ t c F.oX=X=X,X,X,X=X,XwXpX6X/ 3 4 ; 4 - 4 - 4 3 3 i m G L 7.a.`.wXcXcXcXcXcXcX",
"cXcXcXcXcXcXcXcX< = # @ + @ + + + o o o   O % , < Y x.oX=X=X=X=X,X,X=X,XwXgXpX+.3 3 - & - - - 4 1 3 m G ! ;.V.u..XcXcXcXcXcXcXcX",
"cXcXcXcXcXcXcXcXy 6 = = = = + o o o o o O % < g c c.|.,X=X=X=X=X=X,X=X,X8XwXyX| 3 ; & - - & - 4 3 b m G 3.r.w.C.;XcXcXcXcXcXcXcX",
"cXcXcXcXcXcXcXcXL q = = y h M @ o + o < t * j &.c./.OX,X,X=X=XOX@X=X=X%X3XwXuXN.3 3 3 4 3 4 4 4 b b T 6...^ C.K.5XcXcXcXcXcXcXcX",
"cXcXcXcXcXcXcXcXcX6 = @ @ @ = N g * < 0 < l ) 0.|.OX,X,X,X,XOXOXOX@X@X@X=X,XwX6XC 3 4 & 4 ; 4 u T f.r.E F ^ 0.Y.uXcXcXcXcXcXcXcX",
"cXcXcXcXcXcXcXcXcXy < * * @ @ 8 g H h r j I ,.F.OX,X,X,X,X,X=X|.'.(.^.^.'.%X%X6Xt.3 4 & 4 b T | 6.] ] ..r.m.T.9XyXhXcXcXcXcXcXcX",
"cXcXcXcXcXcXcXcXcXh.8 6 < @ + @ 8 g I [ 0.>.q.].1X1X1X,X,X,X(.(.^.^.^.v.^.^.5.V./ r ; & - d S o.G.L.r./ 7.a.R.uXuXyXyXhXcXcXcXcX",
"cXcXcXcXcXcXcXcXcXcX{ j 0 9 0 e p l Y ) :.q.].>X1X1X1X,X=X=X|.b.v.v.v.v.v.^.! ;.m 3 3 4 3 G S 6.H.H.A.S.J.P..XW.#XiXyXyXhXhXcXcX",
"cXcXcXcXcXcXcXcXcXcXY.:.) I U ^ { ,.j.c.,.I.=X1X1X1X=X=XOX-XOX(.p.d.p.v.!.F.L D.L.o.` Z i t f ! D.&XE..X:XH.h.O.j.M.U.6X6XuXkXcX",
"cXcXcXcXcXcXcXcXcXcX8XF.j.,.,.,.c.x.x.x.F. X1X1X1X1X=XOXOXOX}.}.^.v.v.v.v.C.C.%X2X3XP.:.N R ] F U K.eXrX:XU.A.g.e.f.m.M.Q.iXhXcX",
"cXcXcXcXcXcXcXcXcXcX0X X`.`.[.[.].].].]._.<X<X1X=XOXOX}.|.|.|.|.'.^.v.p.1.!.&X%X7X7XP.{ t h } N.T.7XtXrX;XR.8.E ] A S  .n.U.yXcX",
"cXcXcXcXcXcXcXcXcXcX8X*X-XoXoXoX-X-X-X-X_.].=X=X=XOXOXOX}.|.|.|.|.'.~.s.s.). X%X7X7X:XD.P h g J D.;XtXtX4XR.M.f.n.o.V M S  .G.cX",
"cXcXcXcXcXcXcXcXcXcX4X<X*X<X<X*X-X-X*X*X>X1X1X<X=XOX}.{.|.|._._.(./.~.v.!.).XX%X3X>X&XV.] ` c O.5XsXsX$XT.Y.U.M.o. .o.o.Q Z W N.",
"cXcXcXcXcXcXcXcXcXcX4X<X<X2X<X<X1X1X1X=X=X=X=X-XOX}.{.{.|.]._._.).).).c.Z.'.%X%X:XXX XK.9.j.N.W.yXjXfXqX#XE.U.g.r.n.n.e.6.f.r.m.",
"cXcXcXcXcXcXcXcXcXcX4X4X2X4X4X2X2X*X<X*X=X<X<X=X=X-XOX}.|._.).].).~.s.d.d.Z.+X7X3X>X$XK.S.H.:XdXjXkXfXqX.XE.W.S.e.Z M } t.M.J.T.",
"cXcXcXcXcXcXcXcXcXcX<X2X4X4X4X2X1X,X*X-X=X<X1X1X,X-X-X}.]._.).b.z.z.s.s.Z.~.8XlXkXpXrX9XrXjXdXlXlXkXsXeX3XY.:XL.6.M r r u S t.S.",
"cXcXcXcXcXcXcXcXcXgX2X4X0X0X0X4X2X1X*X=X*X*X<X=X<X<X3X*X{.)./.x.~././.`.%X8XpXxXzXjXjXlXlXlXlXlXjXfXeX:X9X5X:XL.A.] d , 1 t m | ",
"cXcXcXcXcXcXcXcXcXwX2X4X0X4X4X4X4X<X<X<X*X1X<X<X>X>X1X>X*X}.].`.`._. X>XwXfXxXxXzXdXdXjXjXjXlXjXjXdXrXP.R.:XsXR.A.6.m 1 , 1 t i ",
"cXcXcXcXcXcXcXcXcX0X4X4X4X0X0X4X<X<X<X*X<X<X*X*X*X+X*X+X*X>X-XXX@XXX3XwXkXzXxXxXfXdXfXjXjXlXlXjXjXqX5XE.K.#X5XsX#Xf.D d 1 ; r u ",
"cXcXcXcXcXcXcXcXcX2X2X4X0X0X4X4X<X2X<X<X<X-X*X}.+X+X}.[.[.+X>X2X2X8XwXkXzXlXkXhXsXsXfXjXjXlXjXjXhXtX:X:XF.R.qXrX5X#XL.o.m u ; r ",
"cXcXcXcXcXcXcXcXgX1X4X0X0XaX4X4X4X<X<X2X-X-X-X}.}.-X].}.}.}.-X:X4XtXdXxXlXhXyXtXtXsXsXsXjXhXdXhXsXrX5X;X#X.XtXtX6XW.Q.M.M.f.} M ",
"cXcXcXcXcXcXcXcX4X1X4X4X4XaX4X4X2X<X2X*X-X*XoX-X[.-X[.[.}.[.[.*X>X0XtXhXtXwXwXtXtXsXpXsXdXsXsXsXiXE.S.h.E.9XtXsX5XE.E.Q.7.r.M.m.",
"cXcXcXcXcXcXcXcX2X2X4X0X0X4X4X4X<X<X:X-X-X*X}.-X[.-X[.[.[.[.[.[.oXXX3XqX8X8XwXwXeXeXtXsXsXsXrX:X5X.XU.V.K.:XsXsX5XG.L.E.J.../ 6.",
"cXcXcXcXcXcXcXgX2X4X4X4X0X4XaX4X<X2X<X*X*X*XoX-X[.-X}.[.].].[.].[.[.*X>X:X7X7X7XeXeXeXrXrX9X5X#XW.E.H.V.K..XrXsX5XL.h.H.Q.D.;.! "
};
