/* XPM */
static char *_f04b0f566644d24f50da297b461f472vEQtUgnoBUThrkH5[] = {
/* columns rows colors chars-per-pixel */
"64 64 150 2 ",
"   c #4E432F",
".  c #50432F",
"X  c #4F4430",
"o  c #514631",
"O  c #564933",
"+  c #5A4C35",
"@  c #5F4E38",
"#  c #5D5036",
"$  c #5F5038",
"%  c #614E37",
"&  c #615437",
"*  c #64533A",
"=  c #6A543D",
"-  c #66593B",
";  c #6B5A3E",
":  c #70523F",
">  c #6E613F",
",  c #73653E",
"<  c #6F5440",
"1  c #6F5B40",
"2  c #735542",
"3  c #7B5745",
"4  c #735D42",
"5  c #7B5B46",
"6  c #7C5D48",
"7  c #756343",
"8  c #7B6345",
"9  c #776842",
"0  c #7A6A45",
"q  c #7E6748",
"w  c #7E6E48",
"e  c #7F7046",
"r  c #805A47",
"t  c #845D4A",
"y  c #8D5F4D",
"u  c #816547",
"i  c #826449",
"p  c #8B634E",
"a  c #836A4A",
"s  c #8B6E4D",
"d  c #91614F",
"f  c #817146",
"g  c #84734A",
"h  c #8D714F",
"j  c #8B7A4E",
"k  c #917F4F",
"l  c #8E6650",
"z  c #8F6852",
"x  c #936652",
"c  c #956A54",
"v  c #9A6B56",
"b  c #9E6C58",
"n  c #8E7250",
"m  c #8D7B50",
"M  c #937452",
"N  c #997754",
"B  c #967954",
"V  c #9B7A56",
"C  c #9E7E58",
"Z  c #A26E5A",
"A  c #A4725C",
"S  c #AA735E",
"D  c #A17E59",
"F  c #AD7560",
"G  c #AC7861",
"H  c #B07661",
"J  c #B47A64",
"K  c #B97D66",
"L  c #BD7F69",
"P  c #958353",
"I  c #9A8755",
"U  c #9D8A56",
"Y  c #9E8B59",
"T  c #A4825B",
"R  c #AA855E",
"E  c #A28E5A",
"W  c #AE885F",
"Q  c #A6925B",
"!  c #AA955E",
"~  c #AE995F",
"^  c #B09A5F",
"/  c #AE8960",
"(  c #B38C62",
")  c #B88F65",
"_  c #BC8169",
"`  c #AF9960",
"'  c #B79065",
"]  c #BA9266",
"[  c #B29C62",
"{  c #BE9569",
"}  c #BF986A",
"|  c #B6A065",
" . c #BBA466",
".. c #BEA769",
"X. c #C4856C",
"o. c #C9876F",
"O. c #C7886E",
"+. c #C9896F",
"@. c #C1976A",
"#. c #C59A6C",
"$. c #C99E6F",
"%. c #CD8C72",
"&. c #D28E74",
"*. c #CB9F70",
"=. c #D79176",
"-. c #D99377",
";. c #DA9378",
":. c #DB9478",
">. c #DF977B",
",. c #E1977C",
"<. c #E1977D",
"1. c #E3997D",
"2. c #CCA06F",
"3. c #C1A96A",
"4. c #C5AC6C",
"5. c #C8AF6D",
"6. c #CAB16E",
"7. c #CBA070",
"8. c #CCA071",
"9. c #D1A473",
"0. c #D2A473",
"q. c #D3A673",
"w. c #D2A574",
"e. c #D4A775",
"r. c #D7A977",
"t. c #DAAB77",
"y. c #D8AA78",
"u. c #DBAC79",
"i. c #DCAE79",
"p. c #CDB470",
"a. c #D0B672",
"s. c #D4BA74",
"d. c #D5BA74",
"f. c #D7BC75",
"g. c #D9BE77",
"h. c #DFB07B",
"j. c #DBBF78",
"k. c #E0AF7B",
"l. c #E1B07B",
"z. c #E4B37C",
"x. c #E9B77F",
"c. c #EAB87F",
"v. c #DBC078",
"b. c #DCC179",
"n. c #E2C67C",
"m. c #E4C87C",
"M. c #E9CC7F",
"N. c #EAB780",
"B. c #EDB981",
"V. c #EBCE80",
/* pixels */
"%.%.%.%.%.X.;.b * X W $.*.8.*.$.$.$.#.$.{ { #.*.{ a o X X { u.r.w.e.0.8.#.] { @.@.0.{ + o 8.$.#.8.( + X X X X X X X + o.>.X.%.%.",
"X.O.%.%.+.X.:.S 5 X s 8.8.#.$.#.@.@.@.$.$.$.$.$.#.8.M   a N.w.@.] @.#.*.*.$.$.$.$.$.#.; X = M W 4 +   o a +   X X X X x K &.X.X.",
"X.%.X.%.+.-.%.X.c X + W ( ' { @.#.$.8.w.w.0.0.0.0.@.4 + l.t.#.$.#.$.$.$.$.*.$.] { 0.R + X       o 8 R 8.w.R u o X X X o v X.=.X.",
"X.X.+.%.%.%.X.&.b %   O + @ = 4 8 a h N D T W ( h * o ] z.$.$.8.*.$.{ #.#.*.#.@.8.{ 4   X o = T *.y.$.i.0.8.#.T 4 o X o + Z %.%.",
"%.%.%.%.%.%.%.=.A 2   X X X X X X   O * & o O + o   a x.r.#.$.$.8.*.#.$.*.8.*.$.0.M o X O $.u.e.8.*.$.$.$.] #.8.{ C =   X % %.=.",
"%.%.%.%.+.+.%.&.K p     O ; 0 j Q 4.d.f.3.7   X X X C { e.@.$.$.8.*.#.#.$.$.*.{ T +   o @.z.8.#.@.@.*.*.] 0.$.*.7.8.] a o = <.&.",
"X.X.X.%.%.X.+.&.Z 3   ; m.b.b.b.b.b.v.b.b...j o X X X s ] 8.#.$.*.$.#.*.8.] M 5 + X X ' x.0.#.#.8.$.*.8.*.*.*.$.$.#.8.8   l <.&.",
"+.X.X.X.X.X.%.&.p @ o p.M.g.a.p.6.4.5.4.4.d.4.Y #   X   8 ( 8.$.#.8.0.( s ; O       R x.t.#.$.$.#.@.] $.*.8.$.@.{ { / *   X.<.1.",
"_ _ X.X.+.%.&.K 3   E V.b.4...4.6.6.6.4.3.4.d.p.! ; X X   = R $.$.T 8 * X X X X X V N.w.$.$.8.*.#.$.8.$.$.] { #.7.w.N O @ ;.L K ",
"b b b b b b b v @ 7 m.m.p.4.p.p.4.4.6.4.6.6.4.p.d.| g X X X + M 4 +     X       1 #.t.#.$.$.#.@.{ @.$.*.8.w.*.$.$.8.u   5 F b b ",
"o o o o o o o o    .b.a.4.4.3.4.4.6.6.4.5.p.4.4.5.f. .P o X X     X @ A X.p o   X a ] 0.#.#.@.8.#.$.8.e.r.e.8.#.@.( = X o o o o ",
"          o O   X P p.5.6.6.4.4.5.5.4.5.4.4.6.6.4.4.g.` +     o 5 _ >.>.;.&.S = X   u ] $.#.#.#.$.e.$.N M a 8 4 * @ o X X       ",
"g P Q | 4.p.Q ;   9 3.a.5.6.3.3.3.5.6.5.4.4.4.6.3.4.a.[ +   2 &.<.-.%.%.%.%.-.X.x + X 8 ] $.#.*.2.' 8 O     X   X X X o + * ; 0 ",
"b.b.b.b.b.b.[ E 7   ` g.p.4.5.p.5.5.5.4.5.6.6.4.3.4.a.[ +   c >.X.%.%.+.%.%.%.&.&.H 2 o 7 ] 0.8.N ; X   o ; a 7   X X ..g.g.j.v.",
"6.6.6.4.4.5.d.| E 7 0 E ..p.6.5.6.6.4.6.3.4.6.4.4.4.p.[ +   _ -.+.%.X.%.X.+.%.+.%.>.X.v @ 4 ( u ; a N @.B.B.B.@.O   o v.m.g.d.a.",
"4.4.6.6.6.6.5.p.3.E 0 # g E | d.d.6.4.6.d.5.5.4.4.4.a.[ + O -.=.%.%.X.=.%.%.%.%.%.%.<.&.J 6 % @ h.z.z.i.e.0.t.8.a   O n.b.4.3.4.",
"4.6.6.4.4...3.4.d.6.E 0 X + g E [ d.g.6.5.6.6.6.5.4.d.[ + = >.%.%.%.+.X.%.%.%.X.X.X.X.+.=.x + T z.r.$.#.*.*.$.r.] + O ~ 4.d.4.a.",
"6.6.6.4.d.a.4.4.4.d.p.E g     # g E [ [ | 4.g.v.g.d.b.[ + i >.+.%.%.%.%.%.%.%.+.&.>.&.%.S 2 = z.e.@.#.*.*.8.*.*.0.M X 7 [ g.4.4.",
"6.6.6.5.4.5.6.6.6.4.6.d.Q g       # 0 7 7 9 0 f j P U P + A =.%.%.X.X.X.%.&.%.%.%.X.X.&.y o / z.*.#.$.8.8.*.7.*.0.@.*   P 3.f.4.",
"6.6.6.6.4.5.4.6.6.5.4.5.d.! g o X X X X X X X X X X X o o %.-.%.+.&.+.X.%.+.X.X.+.%.&.S = ; z.i.) ( $.*.#.] #.$.$.r.C X + ! d.5.",
"4.6.6.6.5.5.4.4... .4.4.p.b.! g   X X   + o   X     X X + -.;.+.%.X.+.%.%.%.&.%.X.%.&.t o { z.8.@.#.$.$.2.@.{ #.#.t.@.*   0  .d.",
"4.4.4.4.5.6.4.6.n.g.p.4.5.d.g -     X a l.8.T q & X X X = X.=.+.%.%.%.%.+.+.%.%.%.&.A % 7 z.t.#.$.0.#.#.#.#.#.#.$.8.t.s   * ~ g.",
"4.3. . .4.6.6.6.4.4.4.5.a.j - X   O W B.l.0.e.t.$.*.B 8 + * b X.&.%.%.+.X.%.%.%.+.%.3 o $.l.8.#.@.#.@.#.@.@.@.$.*.$.r.( O o I f.",
"6.4.f.g.5.6.6.6.4.4.6.g.k ; X   ; w.x.r.#.@.#.#.8.0.e.t.t.' = 3 F &.&.%.%.&.&.%.:.Z + ; 8.i.#.@.@.@.#.#.#.@.@.@.@.#.$.8.8   7 3.",
"d.4.4.4.6.6.4.4.4.4.j.P ; X X M z.i.8.$.#.#.@.( #.$.$.$.0.t.W * + 5 t x Z F H K K 2   o a #.$.#.@.#.#.#.@.( @.#.@.@.#.e.D X & [ ",
"g.5.6.6.6.4.3.6.4.f.I ; X + { c.0.$.*.8.*.$.$.$.*.*.8.$.#.#.0.T &       o + % = < O X X O M 8.0.@.$.8.$.#.*.#.@.#.@.@.$.$.=   P ",
"6.6.6.6.5.4.6.4.d.Y ; X 7 t.z.w.#.#.$.*.*.#.$.*.*.#.$.#.$.8.#.8.T +   X X X X X X X X X X + C i.8.$.8.*.$.$.*.*.*.#.@.#.e.h   9 ",
" .6.4.4.4.4.p.d.Q > o N z.i.$.$.$.$.$.*.$.$.@.#.#.#.#.*.$.*.$.8.$.T +   X + E E E E E E U # = W 0.#.*.8.8.8.8.*.#.@.@.#.8.] O # ",
"P d.6.p.p.3.Q g - o   7 8.y.$.@.#.7.8.8.*.#.#.$.$.*.*.8.$.] { ] 8.@.D + X 0 n.g.g.j.j.b.3.~ * 7 { $.$.8.8.8.8.$.] #.8.$.#.0.q X ",
"0 p.6.Q g ; o     X     * $.e.$.$.$.$.$.*.8.$.$.@.R ' *.*.$.$.8.$.R u =   E b.p.p.6.5.4.a.3.` ; a $.#.*.*.$.$.$.$.$.$.$.#.r.R X ",
"+ g ; o X o & O     X X   + B T ( #.$.8.*.$.$.#.$.$.$.$.8.8.] s 4 +   * E n.6.5.6.6.4.4.4.5.p.[ 7 M 0.$.$.( ] ) #.8.*.$.$.8.h O ",
"X     o a 0.z.i.0.{ R N n 8 o X = u M R ] #.$.8.$.$.8.] D 5 *     + P d.v.d.4.6.6.4.6.p.4.3.p.4.B & T w.*.$.#.#.$.7.$.8.@.u o X ",
"    a 8.N.i.e.8.0.e.t.l.z.8./ u +     O 4 a D / ] / a = O     o m p.b.g.p.4.4.6.6.5.4.6.5.4.4.p.E # ; ( 8.*.8.8.*.#.0.( 4 X X X ",
"8 7.N.t.*.@.( ' #.8.*.$.$.8.e.e.{ h &   X   X % 4 % X X   X w 3.b.d.6.4.4.4.4.6.6.6.6.5.5.6.6.6.| 7   h e.$.8.$.$.r.T =   X X   ",
"x.t.$.$.*.*.*.@.#.*.#.( ] W @.$.8.i.N o   X X & + X   X X   m d.d.4.3.| [ 3.4.4.5.6.4.3.4.4.5.4.4.P   = $.#.#.$.0.B +     X 7 $.",
"#.$.$.$.#.#.*.$.*.*.*.$.$.$.@.$.8.$.u o   $ ( k.8.R ; o X   * ..6.4.v.n.d.4.4.4.4.5.4.6.d.4. .4.d.Q # o / 0.0.$.s O   X ; @.z.*.",
"$.$.@.$.#.$.$.{ { ] { $.8.*.*.y.( ; X + R z.i.e.w.r.8.{ q O   P 5.4.4.4.4.4.4.4.4.5.5.4.4.5.4.5.4. .7   s r.{ 8 o   X X * D 8.y.",
"t.0.*.7.*.*.$.$.*.$.8.$.$.$.0.M + + V z.i.$.#.#.#.#.$.w.r.8.M 7 ..p.5.6.6.6.6.5.4.4.3.3.4.6.6.6.4.p.P o = T ;   o p H = X o a ( ",
"N #.t.$.$.@.$.$.$.$.#.#.8.@.8 o a k.i.$.#.$.8.*.@.#.) ] #.r.( a U d.6.6.6.5.4.3.4.4.4.4.3.6.5.3.4.p.` # o *   = X.=.&.X.c +   & ",
"X 8 / 8.w.8.8.0.t.t.0.$.( =   h y.8.$.*.*.8.*.*.#.$.$.$.#.#.#.D > ..a.4.6.3.3.6.p.p.p.4.4.6.4.4.3.6.4.0   + A >.%.X.X.O.=.X.5   ",
"X X & N ] 8.#.{ T s 8 ; + X M t.8.$.$.( ( ] #.*.$.$.8.$.$.#.$.R @ E d.6.4.4.4.4.4.4.4.4.4.4.4.4.5.4.Q 9 * &.%.X.+.%.%.%.+.X.-.3 ",
"X X   o 4 4 * +   X X X   B r.$.*.8.#.@.$.@.#.{ @.$.$.#.#.@.#.( 7 > I ` | ..p.d.4.4.4.4.4.4.d.[ P ; O   * =.X.%.%.+.%.+.X.+.F < ",
"o o o o o o o o o   X   8 ] 2.*.#.*.*.$.$.*.$.$.$.*.$.*.8.$.#.@.s     O & ; 0 P ~ | 3.d.p.Q g & O ; ( 4 O H %.X.%.%.%.X.+.L 5 o ",
"$.$.$.$.$.$.$.$.@.B &   o 4 T ) $.$.$.#.( @.8.$.#.#.$.$.$.*.$.#.T + ' r.{ C 7 + o + ; 0 7 + + M 0.B.x.@.M + t X.=.%.%.+.X.r a e.",
"r.w.w.e.e.r.r.r.8.] / h +   o q T { $.#.$.$.$.$.8.8.@.#.*.8.*.$./ = { t.#.8.t.e.$.T q & 7 ] x.z.i.8.#.$.8.( 4 @ v %.=.X.t + l.z.",
"@.{ @.#.#.#.$.$.#.$.0.{ / a O   + s R ] #.$.$.*.*.$.$.$.$.$.@.$.W 7 7 r.#.#.#.#.#.$.0.e.h.l.e.$.@.@.@.@.@.8.@.M + 2 H p O R B.0.",
"{ R ] $.8.$.{ ) ] $.$.e.0.@.R 7 o X & M W { 8.8.$.{ ( W D s i 8 4 & X ] t.#.#.#.@.#.#.#.@.@.#.#.@.#.$.$.@.@.$.8.' 4 o O 1 B.i.#.",
"#.$.#.#.*.$.$.0.$.$.$.$.#.$.8.@.N &     ; C R M s a 5 ; * O o = i %   ; ) $.$.#.{ ] @.#.@.@.*.#.] ( @.@.@.#.@.#.8.] + o 0.x.$.@.",
"$.*.$.@.#.$.@.#.*.*.$.$.#.@.$.8.8.R 8 X X o ; & O . = p b J %.&.o.S p O + N $.0.#.@.#.@.@.@.@.@.8.#.@.#.@.#.@.#.#.$.4 n e.r.$.#.",
"8.#.*.$.#.@.{ @.#.#.@.#.{ @.{ #.#.8.( h O X X   A %.&.&.>.<.1.1.-.%.J Z 5 o 8 ] 8.$.#.@.#.$.{ @.#.#.{ W ) ] ] @.@.w.C + n ( @.0.",
"8.t.$.#.@.{ $.#.$.$.#.@.{ { @.@.$.#.r.C 4     A 1.1.=.%.%.+.X.X.X.X.o.X.F c % % D @.0.#.@.#.@.#.@.] #.2.#.#.#.@.$.8.T +   = T ] ",
"/ ] 0.$.#.$.$.#.#.#.$.*.$.$.$.#.*.w.( M o   z 1.1.+._ +.+.X.X.X.X.X.X.X.%.X.F p + a ) 8.0.0.w.0.8.$.$.#.$.$.] T s ; + o X   o 8 ",
"O M ( @.0.r.0.$.$.$.$.*.*.$.@.#.*.w.C 8   i <.1.+.X.X.+.%.X.X.X.%.+.+.%.+.-.>.Z 3   = N C D T T R R / ( R a ; + X     X X X     ",
"X   = D R ] 0.i.w.#.#.*.8.$.$.#.$.] N + = >.1.+.%.%.X.X.+.%.X.X.+.X.%.%.+.%.X.y + X   X X o o o o o o O O X X   X O 0 * X o v + ",
"3 o   X 1 M R ( @.8.8.#.$.$.#.$.( s 8   i ;.&.X.%.%.X.X.X.+.%.X.+.%.%.%.X.&.x : + $.e.r.y.t.t.C   X X   o O = g [ M.n.g X = ;.K ",
"%.Z = X X   & a N N T ] { 0.) s u & X X l ;.X.X.X.X.X.X._ +.+.X.%.%.%.+.+.J t o } t.#.) @.$.$.(   m ..p.f.g.b.m.g.6.d.E o p 1.1.",
"-.;.J x +       o = 8 N N M a = o X X   c :.X.&.%.X.+.%.&.X.X.%.%.%.%.X.&.d % T i.' @.8.$.] ] @.o | b.p.p.p.6.4.3.3.d.7 X _ ;.X.",
"O.%.>.X.S t . X X     o = ; O X         A ;.X.X.X.X.X.X.%.%.%.%.%.+.X.=.A 3 a z.$.$.$.$.$.$.$.( & d.p.p.4.5.6.4.4.4.^ & + >.-.+.",
"%.%.+.&.=.Z 5   o o o o O + = 4 a n q   G =.X.%.%.X.X.%.%.%.%.X.+.X.X.+.y 4 z.8.@.$.8.@.R M ; + + V.p.4.6.6.6.6.6.a.g O 6 <.=.X.",
"+.%.%._ &.H p   ( t.i.l.z.z.z.z.z.z.$.4 p J =.+.%.%.%.%.%.%.+.X.X.X.=.v 2 4 #.$.] C 8 & + C O   w M.p.6.6.4.6.4.5.6.,   G 1.%.X.",
"+.%.%.X.X.%.v O a r.$.#.@.$.7.$.@.@.8.@.* v X.=.&.&.&.%.%.&.=.;.=.&.J t o o s = O o   O $.t.] O I n.6.3.4.5.4.5.4.` = o &.1.X.&.",
"%.%.+.=.X.=.b < + #.#.#.$.$.*.*.@.$.#.w.( & b b b b b v v v c x x x p %     o ; a T 8 O 0.#.8.] 9 | p.p.6.5.6.6.a.U O = <.>.X.%.",
"%.%.%.+.X.&.F t   B $.$.*.#.#.$.*.*.$.$.e.R * O o o X         X     + 8 n ) t.y.t.r.N   T 8.{ 8.] - Q 4.p.6.4.4.d.e   b 1.&.X.%.",
"%.%.%.%.%.%.O.v o 4 #.$.8.#.@.#.*.*.@.#.#.0.$.h +   X X X o ; s D $.y.y.u.r.8.#.#.r.( o 4 e.@.@.8.M   7 Y p.d.6. .- X X.1.X.%.%."
};
