/* XPM */
static char *result[] = {
/* columns rows colors chars-per-pixel */
"64 64 241 2 ",
"   c #701510",
".  c #711610",
"X  c #711611",
"o  c #721711",
"O  c #711813",
"+  c #731812",
"@  c #721813",
"#  c #741912",
"$  c #751B12",
"%  c #751A13",
"&  c #751C13",
"*  c #761C13",
"=  c #761D13",
"-  c #711914",
";  c #721814",
":  c #721914",
">  c #721A14",
",  c #731A15",
"<  c #731B16",
"1  c #741915",
"2  c #761B14",
"3  c #741B16",
"4  c #761C14",
"5  c #771E14",
"6  c #781F14",
"7  c #791E16",
"8  c #7A1F16",
"9  c #7A1F17",
"0  c #751D18",
"q  c #761E1A",
"w  c #761F1A",
"e  c #77201C",
"r  c #77211C",
"t  c #77211D",
"y  c #7B2118",
"u  c #7E2319",
"i  c #7E2419",
"p  c #7E241A",
"a  c #7F241A",
"s  c #78221D",
"d  c #79241F",
"f  c #7F2818",
"g  c #792520",
"h  c #7B2723",
"j  c #7B2823",
"k  c #7C2B25",
"l  c #7F2D29",
"z  c #7F2E2A",
"x  c #80251A",
"c  c #80251B",
"v  c #81261B",
"b  c #82271C",
"n  c #802A19",
"m  c #82281C",
"M  c #83281D",
"N  c #84291D",
"B  c #852A1E",
"V  c #862B1F",
"C  c #86311C",
"Z  c #88331D",
"A  c #882D20",
"S  c #882E20",
"D  c #802D29",
"F  c #802F2B",
"G  c #8B3022",
"H  c #8C3123",
"J  c #8D3323",
"K  c #8F3425",
"L  c #8F3525",
"P  c #80302B",
"I  c #81312C",
"U  c #83342F",
"Y  c #903625",
"T  c #913726",
"R  c #933827",
"E  c #933927",
"W  c #993E2B",
"Q  c #993F2B",
"!  c #833430",
"~  c #833530",
"^  c #833531",
"/  c #843632",
"(  c #853733",
")  c #853833",
"_  c #863935",
"`  c #863A35",
"'  c #873C37",
"]  c #883B37",
"[  c #9A402C",
"{  c #9B412D",
"}  c #9C412D",
"|  c #9C422D",
" . c #9C422E",
".. c #8A403C",
"X. c #8B413D",
"o. c #8B423D",
"O. c #8C433E",
"+. c #A6592E",
"@. c #A14731",
"#. c #A34932",
"$. c #A44A33",
"%. c #A54B33",
"&. c #A64D34",
"*. c #AC5238",
"=. c #AD5338",
"-. c #AE5439",
";. c #AF553A",
":. c #B0563B",
">. c #B1573B",
",. c #B1583C",
"<. c #B2583C",
"1. c #B3593D",
"2. c #B45A3E",
"3. c #B75D3F",
"4. c #B16734",
"5. c #B76F38",
"6. c #B87138",
"7. c #B97139",
"8. c #B97239",
"9. c #BF793C",
"0. c #8D4440",
"q. c #8E4642",
"w. c #8E4743",
"e. c #904A46",
"r. c #914B47",
"t. c #934E4B",
"y. c #934F4B",
"u. c #94504C",
"i. c #96534F",
"p. c #97534F",
"a. c #965450",
"s. c #985754",
"d. c #995855",
"f. c #9B5B58",
"g. c #B75E40",
"h. c #B85E40",
"j. c #B85F40",
"k. c #9D615D",
"l. c #9E605C",
"z. c #9E615E",
"x. c #9F625F",
"c. c #B96041",
"v. c #BA6041",
"b. c #BB6142",
"n. c #BB6242",
"m. c #BC6243",
"M. c #BC6343",
"N. c #BD6343",
"B. c #BD6443",
"V. c #BD6444",
"C. c #BE6544",
"Z. c #BE6545",
"A. c #BF6545",
"S. c #9F6360",
"D. c #A06360",
"F. c #A36A66",
"G. c #A46A67",
"H. c #A46B68",
"J. c #A56B68",
"K. c #A7706D",
"L. c #A8716E",
"P. c #A9726F",
"I. c #AA7472",
"U. c #B17F7D",
"Y. c #CD544C",
"T. c #CD554C",
"R. c #CD564C",
"E. c #CE5E4D",
"W. c #C06645",
"Q. c #C06746",
"!. c #C16746",
"~. c #CE614D",
"^. c #CE624E",
"/. c #CF674E",
"(. c #C36A48",
"). c #C46A48",
"_. c #C56B49",
"`. c #C56C49",
"'. c #C66D49",
"]. c #C76E4A",
"[. c #C86F4B",
"{. c #CF6B4F",
"}. c #CF6D4F",
"|. c #D06F4F",
" X c #C9704C",
".X c #CA704C",
"XX c #CA714C",
"oX c #CB714C",
"OX c #CA714D",
"+X c #CB714D",
"@X c #CC734E",
"#X c #CD744E",
"$X c #CE754F",
"%X c #CF764F",
"&X c #CF7650",
"*X c #D07050",
"=X c #D07150",
"-X c #D07650",
";X c #D07750",
":X c #D17751",
">X c #D17851",
",X c #C5803F",
"<X c #B1807D",
"1X c #B3817E",
"2X c #B3837F",
"3X c #C98642",
"4X c #CA8742",
"5X c #CB8843",
"6X c #CD8C44",
"7X c #D59548",
"8X c #D8994A",
"9X c #D99A4B",
"0X c #DA9C4C",
"qX c #E0A24E",
"wX c #E2A650",
"eX c #ECB356",
"rX c #F2B959",
"tX c #F4BD5A",
"yX c #F8C25C",
"uX c #FAC35D",
"iX c #FBC55E",
"pX c #B78986",
"aX c #B68987",
"sX c #B78A88",
"dX c #B98C89",
"fX c #B98D8A",
"gX c #B98E8C",
"hX c #BA8F8E",
"jX c #BB908E",
"kX c #BC908E",
"lX c #BD9392",
"zX c #BF9896",
"xX c #C19996",
"cX c #C29A98",
"vX c #C29A99",
"bX c #C29B99",
"nX c #C5A19F",
"mX c #CEAFAD",
"MX c #D5BAB8",
"NX c #D8BFBE",
"BX c None",
/* pixels */
"BXBXBXBXBXBXBXBXBXBXBXBXBXBXBXBXBXBXBXBXBXBXBXBXBXBXBXBXBXBXBXBXBXBXBXBXBXBXBXBXBXBXBXBXBXBXBXBXBXBXBXBXBXBXBXBXBXBXBXBXBXBXBXBX",
"BXBXBXBXBXBXBXBXBXBXBXBXBXBXBXBXBXBXBXBXBXBXBXBXBXBXBXBXBXBXBXBXBXBXBXBXBXBXBXBXBXBXBXBXBXBXBXBXBXBXBXBXBXBXBXBXBXBXBXBXBXBXBXBX",
"BXBXBXBXBXBXBXBXBXBXBXBXBXBXBXBXBXBXBXBXBXBXBXBXBXBXBXBXBXBXBXBXBXBXBXBXBXBXBXBXBXBXBXBXBXBXBXBXBXBXBXBXBXBXBXBXBXBXBXBXBXBXBXBX",
"BXBXBXBXBXBXBXBXBXBXBXBXBXBXBXBXBXBXBXBXBXBXBXBXBXBXBXBXBXBXBXBXBXBXBXBXBXBXBXBXBXBXBXBXBXBXBXBXBXBXBXBXBXBXBXBXBXBXBXBXBXBXBXBX",
"BXBXBXBXBXBXBXBXBXBXBXBXBXBXBXBXBXBXBXBXBXBXBXBXBXBXBXBXBXBXBXBXBXBXBXBXBXBXBXBXBXBXBXBXBXBXBXBXBXBXBXBXBXBXBXBXBXBXBXBXBXBXBXBX",
"BXBXBXBXBXBXBXBXBXBXBXBXBXBXBXBXBXBXBXBXBXBXBXBXBXBXBXBXBXBXBXBXBXBXBXBXBXBXBXBXBXBXBXBXBXBXBXBXBXBXBXBXBXBXBXBXBXBXBXBXBXBXBXBX",
"BXBXBXBXBXBXBXBXBXBXBXBXBXBXBXBXBXBXBXBXBXBXBXBXBXBXBXBXBXBXBXBXBXBXBXBXBXBXBXBXBXBXBXBXBXBXBXBXBXBXBXBXBXBXBXBXBXBXBXBXBXBXBXBX",
"BXBXBXBXBXBXBXBXBXBXBXBXBXBXBXBXBXBXBXBXBXBXBXBXBXBXBXBXBXBXBXBXBXBXBXBXBXBXBXBXBXBXBXBXBXBXBXBXBXBXBXBXBXBXBXBXBXBXBXBXBXBXBXBX",
"BXBXBXBXBXBXBXBXBXBXBXBXBXBXBXBXBXBXBXBXBXBXBXBXBXBXBXBXBXBXBXBXBXBXBXBXBXBXBXBXBXBXBXBXBXBXBXBXBXBXBXBXBXBXBXBXBXBXBXBXBXBXBXBX",
"BXBXBXBXBXBXBXBXBXBXBXBXBXBXBXBXBXBXBXBXBXBXBXBXBXBXBXBXBXBXBXBXBXBXBXBXBXBXBXBXBXBXBXBXBXBXBXBXBXBXBXBXBXBXBXBXBXBXBXBXBXBXBXBX",
"BXBXBXBXBXBXBXBXBXBXBXBXBXBXBXBXBXBXBXBXBXBXBXBXBXBXBXBXBXBXBXBXBXBXBXBXBXBXBXBXBXBXBXBXBXBXBXBXBXBXBXBXBXBXBXBXBXBXBXBXBXBXBXBX",
"BXBXBXBXBXBXBXBXBXBXBXBXBXBXBXBXBXBXBXBXBXBXBXBXBXBXBXBXBXBXBXBXBXBXBXBXBXBXBXBXBXBXBXBXBXBXBXBXBXBXBXBXBXBXBXBXBXBXBXBXBXBXBXBX",
"BXBXBXBXBXBXBXBXBXBXBXBXBXBXBXBXBXBXBXBXBXBXBXBXBXBXBXBXBXBXBXBXBXBXBXBXBXBXBXBXBXBXBXBXBXBXBXBXBXBXBXBXBXBXBXBXBXBXBXBXBXBXBXBX",
"BXBXBXBXBXBXBXBXBXBXBXBXBXBXBXBXBXBXBXBXBXBXBXBXBXBXBXBXBXBXBXBXBXBXBXBXBXBXBXBXBXBXBXBXBXBXBXBXBXBXBXBXBXBXBXBXBXBXBXBXBXBXBXBX",
"BXBXBXBXBXBXBXBXBXBXBXBXBXBXBXBXBXBXBXBXBXBXBXBXBXBXBXBXBXBXBXBXBXBXBXBXBXBXBXBXBXBXBXBXBXBXBXBXBXBXBXBXBXBXBXBXBXBXBXBXBXBXBXBX",
"BXBXBXBXBXBXBXBXBXBXBXBXBXBXBXBXBXBXBXBXBXBXBXBXBXBXBXBXBXBXBXBXBXBXBXBXBXBXBXBXBXBXBXBXBXBXBXBXBXBXBXBXBXBXBXBXBXBXBXBXBXBXBXBX",
"BXBXBXBXBXBXBXBXBXBXBXBXBXBXBXBXBXBXBXBXBXBXBXBXBXBXBXBXBXBXBXBXBXBXBXBXBXBXBXBXBXBXBXBXBXBXBXBXBXBXBXBXBXBXBXBXBXBXBXBXBXBXBXBX",
"BXBXBXBXBXBXBXBXBXBXBXBXBXBXBXBXBXBXBXBXBXBXBXBXBXBXBXBXBXBXBXBXBXBXBXBXBXBXBXBXBXBXBXBXBXBXBXBXBXBXBXBXBXBXBXBXBXBXBXBXBXBXBXBX",
"BXBXBXBXBXBXBXBXBXBXBXBXBXBXBXBXBXBXBXBXBXBXBXBXBXBXBXBXBXBXBXBXBXBXBXBXBXBXBXBXBXBXBXBXBXBXBXBXBXBXBXBXBXBXBXBXBXBXBXBXBXBXBXBX",
"BXBXBXBXBXBXBXBXBXBXBXBXBXBXBXBXBXBXBXBXBXBXBXBXBXBXBXBXBXBXBXBXBXBXBXBXBXBXBXBXBXBXBXBXBXBXBXBXBXBXBXBXBXBXBXBXBXBXBXBXBXBXBXBX",
"BXBXBXBXBXBXBXBXBXBXBXBXBXBXBXBXBXBXBXBXBXBXBXBXBXBXBXBXBXBXBXBXBXBXBXBXBXBXBXBXBXBXBXBXBXBXBXBXBXBXBXBXBXBXBXBXBXBXBXBXBXBXBXBX",
"BXBXBXBXBXBXBXbXS.x.xXBXBXBXBXBXBXBXBXBXBXBXBXBXBXBXBXBXBXBXBXBXBXBXBXBXBXBXBXBXBXBXBXBXBXBXBXBXBXBXBXBXBXBXBXBXBXBXBXBXBXBXBXBX",
"BXBXBXBXBXBXq.        u.BXBXBXBXBXBXBXBXBXBXBXBXBXBXBXBXBXBXBXBXBXBXBXBXBXBXBXBXBXBXBXBXBXBXBXBXBXBXBXBXBXBXBXBXBXBXBXBXBXBXBXBX",
"BXBXBXBXBXpX  n 4X3Xf   bXBXBXBXBXBXBXBXBXBXBXBXBXBXBXBXBXBXBXBXBXBXBXBXBXBXBXBXBXBXBXBXBXBXBXBXBXBXBXBXBXBXBXBXBXBXBXBXBXBXBXBX",
"BXBXBXBXmX^   6XiXiX5X  a.BXBXBXBXBXBXBXBXBXBXBXBXBXBXBXBXBXBXBXBXBXBXBXBXBXBXBXBXBXBXBXBXBXBXBXBXBXBXBXBXBXBXBXBXBXBXBXBXBXBXBX",
"BXBXBX/       wXiXiX7X  y.BXBXBXBXBXBXBXBXBXBXBXBXBXBXBXBXBXBXBXBXBXBXBXBXBXBXBXBXBXG.` g O r ! D.cXBXBXBXBXBXBXBXBXBXBXBXBXBXBX",
"BXBXw.  C 4.9.iXiXyXZ   fXBXBXBXBXBXBXBXBXBXBXBXBXBXBXBXBXBXBXBXBXBXBXBXBXBXjX_                       i.NXBXBXBXBXBXBXBXBXBXBXBX",
"BXBX  6 rXiXiXiXiXtX5   L.BXBXBXBXBXBXBXBXBXBXBXBXBXBXBXBXBXBXBXBXBXBXBXF.,     # J &.C. X&XoX!.:.R #     z.BXBXBXBXBXBXBXBXBXBX",
"BXBX  Z iXiXiXiXiXiX9X&   K.BXBXBXBXBXBXBXBXBXBXBXBXBXBXBXBXBXBXBXBXx.    o L ,.#X>X>X>X>X>X>X>X>X>XXX@.o   ~ BXBXBXBXBXBXBXBXBX",
"BXBX0   ,XuXqX8XiXiXiX9X=   J.BXBXBXBXBXBXBXBXBXBXBXBXBXBXBXBXBXP.@   + [ ].>X>X>X>X>X>X>X>X>X>X>X>X>X>XA.u   I BXBXBXBXBXBXBXBX",
"BXBXBX    5     6.iXiXiX0X*         , k.BXBXBXBXBXBXBXBXBXBXsXq   + { [.>X>X>X>X>X>X>X|.{.>X>X>X>X>X>X>X>X.Xb   0.BXBXBXBXBXBXBX",
"BXBXBXBXD   k -   7.iXiXeX6   S } B .     z 1XBXBXBXBXBXnXl     E ].>X>X>X>X>X>X>X>X:XT.Y.=X>X>X>X>X>X>X>X>X].9   U.BXBXBXBXBXBX",
"BXBXBXBXBXBXBXBX1   8.iX+.  J &X>X>XXX#.7       s X...<     M m.>X>X>X>X>X>X>X>X>X>X-X^.E.}.{.>X>X>X>X>X>X>X>Xc.  @ BXBXBXBXBXBX",
"BXBXBXBXBXBXBXBXBX>   5.$   _.>X>X>X>X>X%X1.E 8         b -.;X>X>X>X>X>X>X>X>X>X>X^.Y.|.:XR.Y.*X>X>X>X>X>X>X>X>XY   L.BXBXBXBXBX",
"BXBXBXBXBXBXBXBXBXBX;     i >X>X>X>X>X>X>X>X>X>X'.B.N. X>X>X>X>X>X>X>X>X>X>X>X>X>X~.Y.|.>X/.^.-X>X>X>X>X>X>X>X>XV.  t BXBXBXBXBX",
"BXBXBXBXBXBXBXBXBXBXBX:   b >X>X>X>X>X>X>X>X>X>X>X>X>X>X>X>X>X>X>X>X>X>X>X>X>X>X>X>X-X>X>X>X>X>X>X>X>X>X>X>X>X>X>Xv   MXBXBXBXBX",
"BXBXBXBXBXBXBXBXBXBXBXBX  % &X>X>X>X>X>X>X>X>X>X>X>X>X>X>X>X>X>X>X>X>X>X>X>X>X>X>X>X>X>X>X>X>X>X>X>X>X>X>X>X>X>X>X .  <XBXBXBXBX",
"BXBXBXBXBXBXBXBXBXBXBXBX/   3.>X>X>X>X>X>X>X>X>X>X>X>X>X>X>X>X>X>X>X>X>X>X>X>X>X>X>X>X>X>X>X>X>X>X>X>X>X>X>X>X>X>X;.  d.BXBXBXBX",
"BXBXBXBXBXBXBXBXBXBXBXBXhX  H >X>X>X>X>X>X>X>X>X>X>X>X>X>X>X>X>X>X>X>X>X>X>X>X>X>X>X>X>X>X>X>X>X>X>X>X>X>X>X>X>X>Xb.  O.BXBXBXBX",
"BXBXBXBXBXBXBXBXBXBXBXBXBXd   <.>X>X>X>X>X>X>X>X>X>X>X>X>X>X>X>X>X>X>X>X>X>X>X>X>X>X>X>X>X>X>X>X>X>X>X>X>X>X>X>X>XQ.  ) BXBXBXBX",
"BXBXBXBXBXBXBXBXBXBXBXBXBXBX  % (.>X>X>X>X>X>X>X>X>X>X>X>X>X>X>X>X>X>X>X>X>X>X>X>X>X>X>X>X>X>X>X>X>X>X>X>X>X>X>X>XZ.  ' BXBXBXBX",
"BXBXBXBXBXBXBXBXBXBXBXBXBXBXf.  c +X>X>X>X>X>X>X>X>X>X>X>X>X>X>X>X>X>X>X>X>X>X>X>X>X>X>X>X>X>X>X>X>X>X>X>X>X>X>X>Xg.  t.BXBXBXBX",
"BXBXBXBXBXBXBXBXBXBXBXBXBXBXBX..  B XX>X>X>X>X>X>X>X>X>X>X>X>X>X>X>X>X>X>X>X>X>X>X>X>X>X>X>X>X>X>X>X>X>X>X>X>X>X>X*.  H.BXBXBXBX",
"BXBXBXBXBXBXBXBXBXBXBXBXBXBXBXBX(   a ).>X>X>X>X>X>X>X>X>X>X>X>X>X>X>X>X>X>X>X>X>X>X>X>X>X>X>X>X>X>X>X>X>X>X>X>X>XQ   BXBXBXBXBX",
"BXBXBXBXBXBXBXBXBXBXBXBXBXBXBXBXBXo.  4 3.>X>X>X>X>X>X>X>X>X>X>X>X>X>X>X>X>X>X>X>X>X>X>X>X>X>X>X>X>X>X>X>X>X>X>X>Xm   BXBXBXBXBX",
"BXBXBXBXBXBXBXBXBXBXBXBXBXBXBXBXBXBXD.    | $X>X>X>X>X>X>X>X>X>X>X>X>X>X>X>X>X>X>X>X>X>X>X>X>X>X>X>X>X>X>X>X>X>X].  r BXBXBXBXBX",
"BXBXBXBXBXBXBXBXBXBXBXBXBXBXBXBXBXBXBXvX3   v M.>X>X>X>X>X>X>X>X>X>X>X>X>X>X>X>X>X>X>X>X>X>X>X>X&Xn.j.j.j.j.j.j.{   l.BXBXBXBXBX",
"BXBXBXBXBXBXBXBXBXBXBXBXBXBXBXBXBXBXBXBXBX]   X  .@X>X>X>X>X>X>X>X>X>X>X>X>X>X>X>X>X>X>X>X>X>X>X$.                  BXBXBXBXBXBX",
"BXBXBXBXBXBXBXBXBXBXBXBXBXBXBXBXBXBXBXBXBXBXdX3   7 *.;X>X>X>X>X>X>X>X>X>X>X>X>X>X>X>X>X>X>X>X>XM.G A A A A A p   w BXBXBXBXBXBX",
"BXBXBXBXBXBXBXBXBXBXBXBXBXBXBXBXBXBXBXBXBXBXBXBXp.    x >.>X>X>X>X>X>X>X>X>X>X>X>X>X>X>X>X>X>X>X>X>X>X>X>X>X&XN   2XBXBXBXBXBXBX",
"BXBXBXBXBXBXBXBXBXBXBXBXBXBXBXBXBXBXBXBXBXBXBXBXBXBXF     c :.;X>X>X>X>X>X>X>XW.j.j.j.j.j.j.j.j.j.j.j.j.j.j.W   h BXBXBXBXBXBXBX",
"BXBXBXBXBXBXBXBXBXBXBXBXBXBXBXBXBXBXBXBXBXBXBXBXBXBXBXzXj     a =.%X>X>X>X>Xv.                                  BXBXBXBXBXBXBXBX",
"BXBXBXBXBXBXBXBXBXBXBXBXBXBXBXBXBXBXBXBXBXBXBXBXBXBXBXBXBXBXU     7 @.[.>X>X[.K A A A A A A A A A A A V o     kXBXBXBXBXBXBXBXBX",
"BXBXBXBXBXBXBXBXBXBXBXBXBXBXBXBXBXBXBXBXBXBXBXBXBXBXBXBXBXBXBXBXu.    o T 2.%X>X>X>X>X>X>X>X>X>X>X&X:.y     aXBXBXBXBXBXBXBXBXBX",
"BXBXBXBXBXBXBXBXBXBXBXBXBXBXBXBXBXBXBXBXBXBXBXBXBXBXBXBXBXBXBXBXBXBXI.w     % G @.1.(.OX%X`.h.%.Y 2     P BXBXBXBXBXBXBXBXBXBXBX",
"BXBXBXBXBXBXBXBXBXBXBXBXBXBXBXBXBXBXBXBXBXBXBXBXBXBXBXBXBXBXBXBXBXBXBXBXBXe.X                       l lXBXBXBXBXBXBXBXBXBXBXBXBX",
"BXBXBXBXBXBXBXBXBXBXBXBXBXBXBXBXBXBXBXBXBXBXBXBXBXBXBXBXBXBXBXBXBXBXBXBXBXBXBXBXBXBXr.F @ e z s.gXBXBXBXBXBXBXBXBXBXBXBXBXBXBXBX",
"BXBXBXBXBXBXBXBXBXBXBXBXBXBXBXBXBXBXBXBXBXBXBXBXBXBXBXBXBXBXBXBXBXBXBXBXBXBXBXBXBXBXBXBXBXBXBXBXBXBXBXBXBXBXBXBXBXBXBXBXBXBXBXBX",
"BXBXBXBXBXBXBXBXBXBXBXBXBXBXBXBXBXBXBXBXBXBXBXBXBXBXBXBXBXBXBXBXBXBXBXBXBXBXBXBXBXBXBXBXBXBXBXBXBXBXBXBXBXBXBXBXBXBXBXBXBXBXBXBX",
"BXBXBXBXBXBXBXBXBXBXBXBXBXBXBXBXBXBXBXBXBXBXBXBXBXBXBXBXBXBXBXBXBXBXBXBXBXBXBXBXBXBXBXBXBXBXBXBXBXBXBXBXBXBXBXBXBXBXBXBXBXBXBXBX",
"BXBXBXBXBXBXBXBXBXBXBXBXBXBXBXBXBXBXBXBXBXBXBXBXBXBXBXBXBXBXBXBXBXBXBXBXBXBXBXBXBXBXBXBXBXBXBXBXBXBXBXBXBXBXBXBXBXBXBXBXBXBXBXBX",
"BXBXBXBXBXBXBXBXBXBXBXBXBXBXBXBXBXBXBXBXBXBXBXBXBXBXBXBXBXBXBXBXBXBXBXBXBXBXBXBXBXBXBXBXBXBXBXBXBXBXBXBXBXBXBXBXBXBXBXBXBXBXBXBX",
"BXBXBXBXBXBXBXBXBXBXBXBXBXBXBXBXBXBXBXBXBXBXBXBXBXBXBXBXBXBXBXBXBXBXBXBXBXBXBXBXBXBXBXBXBXBXBXBXBXBXBXBXBXBXBXBXBXBXBXBXBXBXBXBX",
"BXBXBXBXBXBXBXBXBXBXBXBXBXBXBXBXBXBXBXBXBXBXBXBXBXBXBXBXBXBXBXBXBXBXBXBXBXBXBXBXBXBXBXBXBXBXBXBXBXBXBXBXBXBXBXBXBXBXBXBXBXBXBXBX"
};
