/* XPM */
static char *result[] = {
/* columns rows colors chars-per-pixel */
"64 64 104 2 ",
"   c #543927",
".  c #543828",
"X  c #593E2C",
"o  c #5C412E",
"O  c #614633",
"+  c #624836",
"@  c #664B38",
"#  c #6A4F3D",
"$  c #6D5544",
"%  c #715746",
"&  c #735C4C",
"*  c #785C48",
"=  c #7A6353",
"-  c #7D6759",
";  c #836753",
":  c #876B56",
">  c #846B5A",
",  c #8A6F5C",
"<  c #90745F",
"1  c #8F7664",
"2  c #8B776A",
"3  c #8E7A6D",
"4  c #917662",
"5  c #957A66",
"6  c #997E69",
"7  c #917E72",
"8  c #9C816D",
"9  c #948276",
"0  c #9E8471",
"q  c #A3856E",
"w  c #AA8A6F",
"e  c #A18772",
"r  c #A48974",
"t  c #AE8D72",
"y  c #A68C78",
"u  c #A98E79",
"i  c #AB907C",
"p  c #B4967E",
"a  c #BA9778",
"s  c #BD9879",
"d  c #C19B7A",
"f  c #9E8E82",
"g  c #A19186",
"h  c #A4958B",
"j  c #A7988E",
"k  c #B19781",
"l  c #B59983",
"z  c #AC9D94",
"x  c #B3A79E",
"c  c #BAAEA6",
"v  c #BBAFA8",
"b  c #BEB3AB",
"n  c #C6A281",
"m  c #C9A585",
"M  c #C0A188",
"N  c #C9A689",
"B  c #CEAB8B",
"V  c #D0AE8E",
"C  c #C6AB93",
"Z  c #CEAF94",
"A  c #CCB19A",
"S  c #D4B293",
"D  c #D1B59E",
"F  c #D8B798",
"G  c #DBBB9C",
"H  c #DDBEA1",
"J  c #D7BFA9",
"K  c #C5BBB4",
"L  c #C8BFB9",
"P  c #DFC1A4",
"I  c #DFC4AA",
"U  c #CDC4BF",
"Y  c #DFCBB9",
"T  c #E1C3A6",
"R  c #E2C6AB",
"E  c #E7CAAE",
"W  c #E8CAAF",
"Q  c #E4CCB5",
"!  c #EACDB3",
"~  c #E3CDB9",
"^  c #EDD1B6",
"/  c #E6D0BB",
"(  c #EED3BA",
")  c #F1D6BD",
"_  c #F3D8BF",
"`  c #D1C9C4",
"'  c #D6CFCB",
"]  c #D9D2CE",
"[  c #EAD6C4",
"{  c #E9D8C5",
"}  c #EBDCCC",
"|  c #F2D7C0",
" . c #F4D9C1",
".. c #F2DFCD",
"X. c #EEDFD1",
"o. c #E0DCD9",
"O. c #EFE1D3",
"+. c #F6E4D4",
"@. c #F2E9DF",
"#. c #F8E9DC",
"$. c #E9E5E3",
"%. c #EBE8E6",
"&. c #F6F4F3",
"*. c None",
/* pixels */
"*.*.*.*.*.*.*.*.*.*.*.*.*.*.*.*.*.*.*.*.*.*.*.*.*.*.*.*.*.*.*.*.*.*.*.*.*.*.*.*.*.*.*.*.*.*.*.*.*.*.*.*.*.*.*.*.*.*.*.*.*.*.*.*.",
"*.*.*.*.*.*.*.*.*.*.*.*.*.*.*.*.*.*.*.*.*.*.*.*.*.*.*.*.*.*.*.*.*.*.*.*.*.*.*.*.*.*.*.*.*.*.*.*.*.*.*.*.*.*.*.*.*.*.*.*.*.*.*.*.",
"*.*.*.*.*.*.*.*.*.*.*.*.*.*.*.*.*.*.*.*.*.*.*.*.*.*.` o.*.*.*.*.*.*.*.*.*.*.*.v *.*.*.*.*.*.*.*.*.*.*.*.*.*.*.*.*.*.*.*.*.*.*.*.",
"*.*.*.*.*.*.*.*.*.*.*.*.*.*.*.*.*.*.*.*.*.*.*.*.*.*.` > *.*.] *.*.*.*.L *.*.z g *.*.*.*.*.*.*.*.*.*.*.*.*.*.*.*.*.*.*.*.*.*.*.*.",
"*.*.*.*.*.*.*.*.*.*.*.*.*.*.*.*.*.*.*.*.*.*.*.*.*.*.*.2 K *.c x *.*.*.= *.%.& *.*.*.*.*.*.*.*.*.*.*.*.*.*.*.*.*.*.*.*.*.*.*.*.*.",
"*.*.*.*.*.*.*.*.*.*.*.*.*.*.*.*.*.*.*.*.*.*.*.*.*.*.*.*.& &.' 7 *.*.L g *.9 v *.*.*.*.*.*.*.*.*.*.*.*.*.*.*.*.*.*.*.*.*.*.*.*.*.",
"*.*.*.*.*.*.*.*.*.*.*.*.*.*.*.*.*.*.*.*.*.*.*.*.*.*.*.*.g z &.% *.*.g L ' = *.*.*.*.*.*.*.*.*.*.*.*.*.*.*.*.*.*.*.*.*.*.*.*.*.*.",
"*.*.*.*.*.*.*.*.*.*.*.*.*.*.*.*.*.*.*.*.*.*.*.*.*.*.*.*.*.% $.- %.*.= %.- *.*.*.*.*.*.*.*.*.*.*.*.*.*.*.*.*.*.*.*.*.*.*.*.*.*.*.",
"*.*.*.*.*.*.*.*.*.*.*.*.*.*.*.*.*.*.*.*.*.*.*.*.*.*.*.*.*.v 7 g K &.& b 3 *.*.*.*.*.*.*.*.*.*.*.*.*.*.*.*.*.*.*.*.*.*.*.*.*.*.*.",
"*.*.*.*.*.*.*.*.*.*.*.*.*.*.*.*.*.*.*.*.*.*.*.*.*.*.*.*.*.*.= f g U 7 $ *.*.*.*.*.*.*.*.*.*.*.*.*.*.*.*.*.*.*.*.*.*.*.*.*.*.*.*.",
"*.*.*.*.*.*.*.*.*.*.*.*.*.*.*.*.*.*.*.*.*.*.*.*.*.*.*.*.*.*.*.$ = z # *.*.*.*.*.*.*.*.*.*.*.*.*.*.*.*.*.*.*.*.*.*.*.*.*.*.*.*.*.",
"*.*.*.*.*.*.*.*.*.*.*.*.*.*.*.*.*.*.*.*.*.*.*.*.*.*.*.*.*.*.*.3 O & $ *.*.*.*.*.*.*.*.*.*.*.*.*.*.*.*.*.*.*.*.*.*.*.*.*.*.*.*.*.",
"*.*.*.*.*.*.*.*.*.*.*.*.*.*.*.*.*.*.*.*.*.*.*.*.*.*.*.*.*.*.*.*.O O *.*.*.*.*.*.*.*.*.*.*.*.*.*.*.*.*.*.*.*.*.*.*.*.*.*.*.*.*.*.",
"*.*.*.*.*.*.*.*.*.*.*.*.*.*.*.*.*.*.*.*.*.*.*.*.*.*.*.*.*.*.*.*.j - *.*.*.*.*.*.*.*.*.*.*.*.*.*.*.*.*.*.*.*.*.*.*.*.*.*.*.*.*.*.",
"*.*.*.*.*.*.*.*.*.*.*.*.*.*.*.*.*.*.*.*.*.*.*.*.*.*.*.*.*.*.*.*.@.+.*.*.*.*.*.*.*.*.*.*.*.*.*.*.*.*.*.*.*.*.*.*.*.*.*.*.*.*.*.*.",
"*.*.*.*.*.*.*.*.*.*.*.*.*.*.*.*.*.*.*.*.*.*.*.*.*.*.*.*.*.*.*.*.Q ! *.*.*.*.*.*.*.*.*.*.*.*.*.*.*.*.*.*.*.*.*.*.*.*.*.*.*.*.*.*.",
"*.*.*.*.*.*.*.*.*.*.*.*.*.*.*.*.*.*.*.*.*.*.*.*.*.*.*.*.*.*.*.O.! ) Q *.*.*.*.*.*.*.*.*.*.*.*.*.*.*.*.*.*.*.*.*.*.*.*.*.*.*.*.*.",
"*.*.*.*.*.*.*.*.*.*.*.*.*.*.*.*.*.*.*.*.*.*.*.*.*.*.*.*.*.*.*.H ^  .G *.*.*.*.*.*.*.*.*.*.*.*.*.*.*.*.*.*.*.*.*.*.*.*.*.*.*.*.*.",
"*.*.*.*.*.*.*.*.*.*.*.*.*.*.*.*.*.*.*.*.*.*.*.*.*.*.*.*.*.*.[ G )  .R R *.*.*.*.*.*.*.*.*.*.*.*.*.*.*.*.*.*.*.*.*.*.*.*.*.*.*.*.",
"*.*.*.*.*.*.*.*.*.*.*.*.*.*.*.*.*.*.*.*.*.*.*.*.*.*.*.*.*.*.G T  . .Q G +.*.*.*.*.*.*.*.*.*.*.*.*.*.*.*.*.*.*.*.*.*.*.*.*.*.*.*.",
"*.*.*.*.*.*.*.*.*.*.*.*.*.*.*.*.*.*.*.*.*.*.*.*.*.*.*.*.*.Q G E  . .) G H *.*.*.*.*.*.*.*.*.*.*.*.*.*.*.*.*.*.*.*.*.*.*.*.*.*.*.",
"*.*.*.*.*.*.*.*.*.*.*.*.*.*.*.*.*.*.*.*.*.*.*.*.*.*.*.*.*.G G ^  . . .G G [ *.*.*.*.*.*.*.*.*.*.*.*.*.*.*.*.*.*.*.*.*.*.*.*.*.*.",
"*.*.*.*.*.*.*.*.*.*.*.*.*.*.*.*.*.*.*.*.*.*.*.*.*.*.*.*.R G G )  . . .R G G *.*.*.*.*.*.*.*.*.*.*.*.*.*.*.*.*.*.*.*.*.*.*.*.*.*.",
"*.*.*.*.*.*.*.*.*.*.*.*.*.*.*.*.*.*.*.*.*.*.*.*.*.*.*.X.G G T  . . . .! G G Q *.*.*.*.*.*.*.*.*.*.*.*.*.*.*.*.*.*.*.*.*.*.*.*.*.",
"*.*.*.*.*.*.*.*.*.*.*.*.*.*.*.*.*.*.*.*.*.*.*.*.*.*.*.H G G R  . . . .) G G G *.*.*.*.*.*.*.*.*.*.*.*.*.*.*.*.*.*.*.*.*.*.*.*.*.",
"*.*.*.*.*.*.*.*.*.*.*.*.*.*.*.*.*.*.*.*.*.*.*.*.*.*.[ G G G ^ _  . . . .P G G R *.*.*.*.*.*.*.*.*.*.*.*.*.*.*.*.*.*.*.*.*.*.*.*.",
"*.*.*.*.*.*.*.*.*.*.*.*.*.*.*.*.*.*.*.*.*.*.*.*.*.*.G G G G )  . . . . .R G G G O.*.*.*.*.*.*.*.*.*.*.*.*.*.*.*.*.*.*.*.*.*.*.*.",
"*.*.*.*.*.*.*.*.*.*.*.*.*.*.*.*.*.*.*.*.*.*.*.*.*.Q G G G P  . . . . . .! G G G H *.*.*.*.*.*.*.*.*.*.*.*.*.*.*.*.*.*.*.*.*.*.*.",
"*.*.*.*.*.*.*.*.*.*.*.*.*.*.*.*.*.*.*.*.*.*.*.*.*.G G G G R  . . . . . ._ G G G G ~ *.*.*.*.*.*.*.*.*.*.*.*.*.*.*.*.*.*.*.*.*.*.",
"*.*.*.*.*.*.*.*.*.*.*.*.*.*.*.*.*.*.*.*.*.*.*.*.m d m B S !  . . . . . .) G V m d d *.*.*.*.*.*.*.*.*.*.*.*.*.*.*.*.*.*.*.*.*.*.",
"*.*.*.*.*.*.*.*.*.*.*.*.*.*.*.*.*.*.*.*.*.*.*.Y d d d d d 5 e i u k e 4 : w d d d d Z *.*.*.*.*.*.*.*.*.*.*.*.*.*.*.*.*.*.*.*.*.",
"*.*.*.*.*.*.*.*.*.*.*.*.*.*.*.*.*.*.*.*.*.*.*.d d d d d s > > > > > > > > 6 d d d d d } *.*.*.*.*.*.*.*.*.*.*.*.*.*.*.*.*.*.*.*.",
"*.*.*.*.*.*.*.*.*.*.*.*.*.*.*.*.*.*.*.*.*.*.~ d d d d d t > > > > > > > > > l d d d d S *.*.*.*.*.*.*.*.*.*.*.*.*.*.*.*.*.*.*.*.",
"*.*.*.*.*.*.*.*.*.*.*.*.*.*.*.*.*.*.*.*.*.*.G G G S V B M i 8 8 6 6 6 0 y k B V S G G G O.*.*.*.*.*.*.*.*.*.*.*.*.*.*.*.*.*.*.*.",
"*.*.*.*.*.*.*.*.*.*.*.*.*.*.*.*.*.*.*.*.*.Q G G G G G G )  . . . . . . . . .! G G G G G H *.*.*.*.*.*.*.*.*.*.*.*.*.*.*.*.*.*.*.",
"*.*.*.*.*.*.*.*.*.*.*.*.*.*.*.*.*.*.*.*.*.G G G G G G G  . . . . . . . . . .( G G G G G G [ *.*.*.*.*.*.*.*.*.*.*.*.*.*.*.*.*.*.",
"*.*.*.*.*.*.*.*.*.*.*.*.*.*.*.*.*.*.*.*.R G G G G G G R  . . . . . . . . . . .G G G G G G G *.*.*.*.*.*.*.*.*.*.*.*.*.*.*.*.*.*.",
"*.*.*.*.*.*.*.*.*.*.*.*.*.*.*.*.*.*.*.+.G G G G G G G W  . . . . . . . . . . .T G G G G G G Q *.*.*.*.*.*.*.*.*.*.*.*.*.*.*.*.*.",
"*.*.*.*.*.*.*.*.*.*.*.*.*.*.*.*.*.*.*.H G G G G G G G )  . . . . . . . . . . .! G G G G G G G *.*.*.*.*.*.*.*.*.*.*.*.*.*.*.*.*.",
"*.*.*.*.*.*.*.*.*.*.*.*.*.*.*.*.*.*.{ G G G G G G G G )  . . . .) D  . . . . .( G G G G G G G T *.*.*.*.*.*.*.*.*.*.*.*.*.*.*.*.",
"*.*.*.*.*.*.*.*.*.*.*.*.*.*.*.*.*.*.G G G G G G G G T  . . . . .p :  . . . . . .G G G G G G G G O.*.*.*.*.*.*.*.*.*.*.*.*.*.*.*.",
"*.*.*.*.*.*.*.*.*.*.*.*.*.*.*.*.*.Q G G G G G G G G W  . . . ._ @ . R  . . . . .R G G G G G G G H *.*.*.*.*.*.*.*.*.*.*.*.*.*.*.",
"*.*.*.*.*.*.*.*.*.*.*.*.*.*.*.*.*.G G G G G G G G G ^  . . . .A   . e  . . . . .! G G G G G G G G [ *.*.*.*.*.*.*.*.*.*.*.*.*.*.",
"*.*.*.*.*.*.*.*.*.*.*.*.*.*.*.*.R G G G G G G G G G _  . . . .<   . O )  . . . .) G G G G G G G G G *.*.*.*.*.*.*.*.*.*.*.*.*.*.",
"*.*.*.*.*.*.*.*.*.*.*.*.*.*.*.O.G G G G G G G G G T _  . . .( X       C  . . . . .G G G G G G G G G Q *.*.*.*.*.*.*.*.*.*.*.*.*.",
"*.*.*.*.*.*.*.*.*.*.*.*.*.*.*.m Z G G G G G G G G W _  . . .l         4  . . . . .R G G G G G G G S m X.*.*.*.*.*.*.*.*.*.*.*.*.",
"*.*.*.*.*.*.*.*.*.*.*.*.*.*.J d d d n B S G G G G !  . . . .:         X )  . . . .! G G G F V m d d s N *.*.*.*.*.*.*.*.*.*.*.*.",
"*.*.*.*.*.*.*.*.*.*.*.*.*.*.d d d d d d d d m B S Q _  . .(             C )  .) ! H V N d d d d d d d d Y *.*.*.*.*.*.*.*.*.*.*.",
"*.*.*.*.*.*.*.*.*.*.*.*.*.I N d d d d d d d d d s > > 8 r 4 .           = e 1 > > > s d d d d d d d d n S *.*.*.*.*.*.*.*.*.*.*.",
"*.*.*.*.*.*.*.*.*.*.*.*.*.G G G S V m d d d d d w : > > > %             o > > > > > w d d d d d B S G G G { *.*.*.*.*.*.*.*.*.*.",
"*.*.*.*.*.*.*.*.*.*.*.*.R G G G G G G G F V B n t > > > > O               , > > > 5 p m V S G G G G G G G G *.*.*.*.*.*.*.*.*.*.",
"*.*.*.*.*.*.*.*.*.*.*.X.G G G G G G G G G G G G ) ) ^ Q A                 e R ! )  .) G G G G G G G G G G G ~ *.*.*.*.*.*.*.*.*.",
"*.*.*.*.*.*.*.*.*.*.*.H G G G G G G G G G G G T |  . . .C .               6  . . . . .H G G G G G G G G G G G *.*.*.*.*.*.*.*.*.",
"*.*.*.*.*.*.*.*.*.*.[ G G G G G G G G G G G G T  . . . .q                 *  . . . ._ R G G G G G G G G G G G I *.*.*.*.*.*.*.*.",
"*.*.*.*.*.*.*.*.*.*.G G G G G G G G G G G G G !  . . . .,                   _  . . . .! G G G G G G G G G G G G X.*.*.*.*.*.*.*.",
"*.*.*.*.*.*.*.*.*.} G G G G G G G G G G G G G )  . . . .@                   E  . . ._ ) G G G G G G G G G G G G R *.*.*.*.*.*.*.",
"*.*.*.*.*.*.*.*.*.*.*.Q G G G G G G G G G G H  . . . .(                     C  . . . . .G G G G G G G G G G R *.*.*.*.*.*.*.*.*.",
"*.*.*.*.*.*.*.*.*.*.*.*.*.[ P G G G G G G G T  . . . .R                     u  . . . . .R G G G G G G G / *.*.*.*.*.*.*.*.*.*.*.",
"*.*.*.*.*.*.*.*.*.*.*.*.*.*.*.*.[ H G G G G W  . . . .Z                     8  . . . . .W G G G G Q O.*.*.*.*.*.*.*.*.*.*.*.*.*.",
"*.*.*.*.*.*.*.*.*.*.*.*.*.*.*.*.*.*.*.} Q G ) )  . . .l                     4  . . . . .( R [ *.*.*.*.*.*.*.*.*.*.*.*.*.*.*.*.*.",
"*.*.*.*.*.*.*.*.*.*.*.*.*.*.*.*.*.*.*.*.*.*.*.*.+...) e . . . . . . . .   . ; )  ...#.*.*.*.*.*.*.*.*.*.*.*.*.*.*.*.*.*.*.*.*.*.",
"*.*.*.*.*.*.*.*.*.*.*.*.*.*.*.*.*.*.*.*.*.*.*.*.*.*.*.*.*.*.*.*.*.*.*.*.*.*.*.*.*.*.*.*.*.*.*.*.*.*.*.*.*.*.*.*.*.*.*.*.*.*.*.*.",
"*.*.*.*.*.*.*.*.*.*.*.*.*.*.*.*.*.*.*.*.*.*.*.*.*.*.*.*.*.*.*.*.*.*.*.*.*.*.*.*.*.*.*.*.*.*.*.*.*.*.*.*.*.*.*.*.*.*.*.*.*.*.*.*.",
"*.*.*.*.*.*.*.*.*.*.*.*.*.*.*.*.*.*.*.*.*.*.*.*.*.*.*.*.*.*.*.*.*.*.*.*.*.*.*.*.*.*.*.*.*.*.*.*.*.*.*.*.*.*.*.*.*.*.*.*.*.*.*.*."
};
