/* XPM */
static char *ec273d3ce59846edc9c97e5c090d5d8c6mTao55ilmH9R40s[] = {
/* columns rows colors chars-per-pixel */
"64 64 28 1 ",
"  c #8BAD01",
". c #8DB401",
"X c #8EBC00",
"o c #90B701",
"O c #92BD00",
"+ c #8FC300",
"@ c #94C100",
"# c #97C200",
"$ c #93C600",
"% c #94C500",
"& c #99C301",
"* c #9BC701",
"= c #9CC401",
"- c #9DC601",
"; c #95C800",
": c #9ACB00",
"> c #9CCA00",
", c #9BCC00",
"< c #9FCE00",
"1 c #A1C700",
"2 c #A1CB01",
"3 c #A0CD00",
"4 c #A3CE01",
"5 c #A2D000",
"6 c #A6D200",
"7 c #AAD101",
"8 c #ABD301",
"9 c #ADD500",
/* pixels */
"X+$:#X$%$;;$:>;$:;;:++++++++$$%::-X+++++++%;$;%:#%;<O+X$$$++$;%#",
"++$;O++++$;$;%;$;;$$++++++++$$$*&X++++++++$;$$$;#;;>%37X++++++++",
"++;;%;%+++$$$;%+;$++++$++++$%%$;3>X$+++++++$$+$$$;;$;%>3X+++++++",
"++$$$OXX++++#%#$+++++#:+>#+++++#++:3+;>+++++++++$$+%;%;*X+++++++",
"++%;;;%++++++++++++$X%#:%%++++++++:#;*.++++++%;++++%;;:O++++++++",
"X++$%%-#++++XXXX+#$$O;;;%#+++++++$;$:O:<%++++%$++++$;$X++++++++#",
"X++++:#X+++X....+%;$;;;3#OO++++++$;;%%%>*++++#$++++++++++++*X##2",
"$*OXXXX++++++++XX$$$$$<%$:+++++++#;;$+..X+%:;$$$+++XXXXX++;#>O;&",
";*#X++++++++++++++;;;$$$>OXX.....X+%;;$$++-*#$$++.......+$%$$;;;",
"###X......X%;;$$++$;:3+$##+XX..XX+$$;;;>++>3%;%#+X.....+++++$$$$",
"+#OXXX.XXX++%:;;$+++++$#OX++++++++%;#-32++X##+$+++++X+$++$>O:+++",
":*X++++++$$$$::>3++++++++++++$X+++%:;XXO+++++X#++++%++:##;$;*++$",
"O+$$++$;$%;%;$##oX++++++*X%O$:O#+++*7X+++++++.7:+++3&$;*$;;<O$$#",
"%$;;;+$;%O;;%>#X#++++++*%O;#;$3O++++O++++X%$+O<$++#$:#;$;;%O++$%",
"+%;>;$$;;X#:$%3#X++++++;$;$$$;%::+++++++++#3<%;$++++;$%$+$:>X+++",
"+::>;$%;:XX#>XO#+++++++;$$++$;%#X++++++X->;#<<;$++++#OXX++++++++",
"+::%;O%;<X+XO>:><++3+++#++++%X+++....++*9:;;;:;+X...........X+++",
"+#:**X+3#X+++%:%;;$<:+>++++:#X+++XXXXX++#*;;;;#X............+#++",
"+XXO.++OX+++++;:;;+;$:6$$#.:$.#;:......*3;$$;%++++++XXO%;$+%;;%%",
"$+++++++++++++:;;%$;$:$$+5##$+;;2......++$#+++++++...O:;$$%;;:*7",
"%$;#$$:*.....X;::+$%#;++#-<$%$;;#*#...X++++++++++X...oOO:;%$$$3*",
":$;#;;*O.....XX++XXX+$++;7<;;%;$;;*..X+++++$$+%;:X.....O,;#X;O#:",
"#::X%;;>O....O2+X***X++++:;;;$$;;#..XXXXXX$;;;;%2+.....OOX..%%X+",
"+$>..3>#-....>:##:#:%+++++$$$++$+X++X...X#;;;;;:7X+    ..X+X:+++",
"%$+X..OO.:O.X:;#%;3;:+++++++++#++$+%+++++;;3%$>>O+X.  .X#%;;$++$",
"$$++X.O>%%;*X;;$$;:;$+++++++O3$$+;$%$++++;:O<>#++++++++%%*;$%$$;",
"*#++XXO#:;;;#%;$+$;%+++##$$+#$;;#:;#<$+++:>.+#+X+++*-++++2#$#3%&",
"+++++--%$%%%$+$#+++++++%%$+X<;%%X<$+%%+++<oX++++XX+%:>++++#$+X+X",
"+++++%;;:$+++XXXXXXX+X*#+++O:#:++#$+++++++#+%O++X7-#%;$++++OO#++",
";$++++$$;;$+X......X++##$$$$#+++++XXXX+++$%%%3*++<;;$$$+++O#$$::",
";$+++++++++++++++++++X*%;%;#$%%++X...X++++$%$2$+++#$$$+++XO:$:%;",
"$$%++++++++++++#:+++++#%O3+-O<+++++X+++++$$#$$+X.O#$;;;+++>+><%%",
"$$$+XXXXX.X+++##$$$+++++##X#X++++++#$+++++;O+++$3>%#;%;+++X#%;;#",
"$+++XX..XX++++#;;;;$+++++++++XXXXO;;;$++++3++++++Xo:$%%+++*::#%X",
"+++++$+$%$++++XXO$$$++++++++....O,;%;$$%+++++++++O6$#3#++++:$%$+",
"++++$;+;%%$$++#$$$;%+++++++++XXXO*<;%%;;+$##;$+++X..X++#%$$$+$++",
"++;%;%$;;:$;$+++XO;$+++++#$$++++##3:#<;$%;%$;;++......X**%$$++++",
"+$<%#+$<3:$<:::$X:%++++*%:;%$+$%%$+X76:+*;%:<;:+.....X+35%$$++++",
"+++<#+>$%++:<$++++#+#+:X#%;$%:<%:%+X*$++#%$>>3>++XXX++++$+%$++++",
"+;:++++++++++++++$*%O$-+#-*:O<O-$+++++++OX*>OO$+++#%++$$$+:+++$3",
";*.X++++++++++++$;$%%;;;#O%+XXXXX...X+++++&$X+$$++&;;$;#:#$+++:$",
":O<3>++++++++++++++$$$$$##+.........X;;;$#++++X%$X>;;O:$*:+++$;$",
"%$OO.++++++++%X+$%#3+++#*#+XX....XX+++;:;;$++*%$+*>$$X:#+#+++$;;",
"$$O+++++++3#+;-$;$:&++$%%+++++++$$+$%;$%;&*++O+++$+%+++++XXXX+#$",
";;;<++++++;>#;#;;%#X$$#OX++$;;$+;;$%;;:%X#X+X*%;;%$$++++....X+$$",
"%&32+++++++;#;$$$:2X+++++++;;:;+;;$X:;$>:XX+X&%#%*%;++++++++++%;",
"<+XO+++++++$$+$++#++++++++#;::;X:;%+O*%X##++++X>X%#++X+++$O+++#<",
"7#+X.....X++++++#+$$$+++++X::%;X%;*++XO3%3:+$3+++++#3X*-%%*O+++#",
"X+X......++++#%;%$;;;;%++++#O>O+#2X++++;:;;$%:$;3++%$;$%$;:#%$++",
"+++XXXXXXXX+#:;$$%;;:*9+++%XXX+++X++++++%:;%$;$:%++;$$+$$;;##+++",
"+++++++X....%%#:;%$$%6##+$%$;+%;:$+++++#<:;$$$$$+++++++$%X++++++",
"+++++%$+++++++O3;$+;X%<+$$%$%$;;>$+....X++++++$$+++++X+;$X+#$#++",
"+$;;$$,6O++++X%;$+X%#.$+<6$;%$;;<%++XXX.O+XOXX+++++++:X#$X$;<O++",
"+$;;;;*#++X.X+++++X%$+++;%+:>+:%:<++++X2>+O<#3X++++++3:#%+;:&+++",
"$;;;;;<9O....X++++X:+++#+++%%+$6#<*X++%::X%:%:#+++++;2<;;$;$;:>#",
";;3%#:2O++XXXXXO%;;$++$%$+++++++#.#>O+:;:X;:%;%++++++;;;;$$;;*++",
";;#5>X+++++++XO*#;%$$$;$$+++++XX*<#;:O%;;+;;>;$++++++++XXX++++++",
";3.$##X++++++...-%$%*%&:O++++++#X;>%;;X;;+$;;;+++++++++X..X+++++",
"3&X++XXXXXXX+...OO%.&.OO++++++OO%#;;%;$$;++$$+++++++++++X+++++++",
"%.+++X......XX...O....XXX++++#%3::%$$$+++++++++++++XXXX++...X+++",
"++++++++XXXX++X......X+XXX+++%+%;;:$++++++++X6X+++X...X++XX++:#+",
"++++++++++X.X++++XX++++++++++<++$;;;$+++++##O<O%X+++++++*O%>#:O*",
"++++++++%:$++$#%+%3+++++++++$%++++++++++++722;$:X++++++%%->*;$:O",
"6O+%%+%<:<6+%66%$3;3$++++++$$#$%:++++++++%:56;$;#+<91++:$;#$$;;<"
};
