/* XPM */
static char *result[] = {
/* columns rows colors chars-per-pixel */
"64 64 137 2 ",
"   c #161513",
".  c #181715",
"X  c #1A1816",
"o  c #1D1C1A",
"O  c #211E1C",
"+  c #23211E",
"@  c #252422",
"#  c #292624",
"$  c #2B2926",
"%  c #2E2C2B",
"&  c #302C26",
"*  c #322E2B",
"=  c #3A342F",
"-  c #363432",
";  c #393635",
":  c #3A3837",
">  c #3D3C3A",
",  c #443C35",
"<  c #423E3D",
"1  c #43403F",
"2  c #4C433C",
"3  c #454443",
"4  c #494543",
"5  c #4B4847",
"6  c #4C4A49",
"7  c #544B43",
"8  c #584F46",
"9  c #524D4B",
"0  c #54504F",
"q  c #5D534A",
"w  c #555454",
"e  c #5A5553",
"r  c #5B5856",
"t  c #5D5D5C",
"y  c #62574D",
"u  c #64594E",
"i  c #675C51",
"p  c #635D5B",
"a  c #6E6156",
"s  c #60605F",
"d  c #72655A",
"f  c #76695D",
"g  c #786A5E",
"h  c #646363",
"j  c #6C6563",
"k  c #6D6867",
"l  c #6B6A69",
"z  c #736C65",
"x  c #7D6E62",
"c  c #736C6A",
"v  c #76706E",
"b  c #78706F",
"n  c #747373",
"m  c #7B7472",
"M  c #7C7C7B",
"N  c #827366",
"B  c #807877",
"V  c #8F7E70",
"C  c #877F7D",
"Z  c #E6625D",
"A  c #E66560",
"S  c #E76964",
"D  c #E76F68",
"F  c #E7726B",
"G  c #E97672",
"H  c #E97A75",
"J  c #80807F",
"K  c #89807F",
"L  c #938273",
"P  c #858585",
"I  c #8E8584",
"U  c #898888",
"Y  c #928887",
"T  c #948A89",
"R  c #988E8D",
"E  c #9C918D",
"W  c #949493",
"Q  c #989897",
"!  c gray60",
"~  c #A79282",
"^  c #B19B89",
"/  c #A39691",
"(  c #A59E9C",
")  c #ABA098",
"_  c #BEA794",
"`  c #B0A299",
"'  c #BBAA9E",
"]  c #A5A5A5",
"[  c #ABABAB",
"{  c #B7AFA9",
"}  c #AFAFB0",
"|  c #B4B3B2",
" . c #BBB6B4",
".. c #BCBCBC",
"X. c #EB9184",
"o. c #ED9B8F",
"O. c #C9B29D",
"+. c #CDB5A0",
"@. c #D2B8A4",
"#. c #F1BCAA",
"$. c #F3B9B5",
"%. c #C0C0BF",
"&. c #DAC8BB",
"*. c #E3C7B1",
"=. c #EACDB5",
"-. c #E1CBB9",
";. c #F1C6B1",
":. c #F4C1BE",
">. c #F2D4BC",
",. c #C4C3C3",
"<. c #CBCBCB",
"1. c #D3D3D3",
"2. c #DBDBDB",
"3. c #F5C6C3",
"4. c #F6C8C6",
"5. c #F6CFCC",
"6. c #E5D3C5",
"7. c #E1D5D4",
"8. c #E1DFDF",
"9. c #F6DED1",
"0. c #F6E3D3",
"q. c #F7E7D9",
"w. c #F8E7D9",
"e. c #F8EDDF",
"r. c #E4E3E3",
"t. c #E8E8E7",
"y. c #ECECEC",
"u. c #F9EDE3",
"i. c #FBEEEE",
"p. c linen",
"a. c #FBF3EC",
"s. c #F4F4F4",
"d. c #FCF6F1",
"f. c #FDF9F5",
"g. c #F8F7F8",
"h. c #FEFDFD",
"j. c None",
/* pixels */
"j.j.j.j.j.j.j.j.j.j.j.j.j.j.j.j.j.j.j.j.j.j.j.j.j.j.j.j.j.j.j.j.j.j.j.j.j.j.j.j.j.j.j.j.j.j.j.j.j.j.j.j.j.j.j.j.j.j.j.j.j.j.j.j.",
"j.j.j.j.j.j.j.j.j.j.j.j.j.j.j.j.j.j.j.j.j.j.j.j.j.j.j.j.j.j.j.j.j.j.j.j.j.j.j.j.j.j.j.j.j.j.j.j.j.j.j.j.j.j.j.j.j.j.j.j.j.j.j.j.",
"j.j.j.j.j.j.j.j.j.j.j.j.j.j.j.j.j.j.j.j.j.j.j.j.j.j.j.j.j.j.j.j.j.j.j.j.j.j.j.j.j.j.j.j.j.j.j.j.j.j.j.j.j.j.j.j.j.j.j.j.j.j.j.j.",
"j.j.j.j.j.j.j.j.j.j.j.j.j.j.j.j.j.j.j.j.j.j.j.j.j.j.j.j.j.j.j.j.j.j.j.j.j.j.j.j.j.j.j.& o .         X # 2 j.j.j.j.j.j.j.j.j.j.j.",
"j.j.j.j.j.j.j.j.j.j.j.j.j.j.j.j.j.j.j.j.j.j.j.j.j.j.j.j.j.j.j.j.j.j.j.j.j.j.j.j.$                     .     o 2 j.j.j.j.j.j.j.j.",
"j.j.j.j.j.j.j.j.j.j.j.j.j.j.j.j.j.j.j.j.j.j.j.j.j.j.j.j.j.j.j.j.j.j.j.j.j.j.&   .     : k                         2 j.j.j.j.j.j.",
"j.j.j.j.j.j.j.j.j.j.j.j.j.j.j.j.j.j.j.j.j.j.j.j.j.j.j.j.j.j.j.j.j.j.j.j.a X     . o p p +         .               X X d j.j.j.j.",
"j.j.j.j.j.j.j.j.j.j.j.j.j.j.j.j.j.j.j.j.j.j.j.j.j.j.j.j.j.j.j.j.j.j.j.8         @ z 4 .   .         .         X     X X n j.j.j.",
"j.j.j.j.j.j.j.j.j.j.j.j.j.j.j.j.j.j.j.j.j.j.j.j.j.j.j.j.j.j.j.j.j.j.y     .   % c ; . + 5 r . .                         X j.j.j.",
"j.j.j.j.j.j.j.j.j.j.j.j.j.j.j.j.j.j.j.j.j.j.j.j.j.j.j.j.j.j.j.j.j.j.        # c * . - c 9 @ # 0 %   .               X   . - j.j.",
"j.j.j.j.j.j.j.j.j.j.j.j.j.j.j.j.j.j.j.j.j.j.j.j.j.j.j.j.j.j.j.j.j.+     . o z ; . - c # X e c > X     .         X o         j.j.",
"j.j.j.j.j.j.j.j.j.j.j.j.j.j.j.j.j.j.j.j.j.j.j.j.j.j.j.j.j.j.j.j.y         e 6   X v # O c 6 .   .         . > c v v j X     j.j.",
"j.j.j.j.j.j.j.j.j.j.j.j.j.j.j.j.j.j.j.j.j.j.j.j.j.j.j.j.j.j.j.j.+       * j X   o :   5 <         .       . < @ . . X       j.j.",
"j.j.j.j.j.j.j.j.j.j.j.j.j.j.j.j.j.j.j.j.j.j.j.j.j.j.j.j.j.j.j.N         p ;     . .   .   .           .                     j.j.",
"j.j.j.j.j.j.j.j.j.j.j.j.j.j.j.j.j.j.j.j.j.j.j.j.j.j.j.j.j.j.j.,       O j X                       . .     .             .   j.j.",
"j.j.j.j.j.j.j.j.j.j.j.j.j.j.j.j.j.j.j.j.j.j.j.j.j.j.j.j.j.j.j.+         O   .     .         . . .   .   .       .           j.j.",
"j.j.j.j.j.j.j.j.j.j.j.j.j.j.j.j.j.j.j.j.j.j.j.j.j.j.j.j.j.j.j.X                         .     .     .       .     .         5 j.",
"j.j.j.j.j.j.j.j.j.j.j.j.j.j.j.j.j.j.j.j.j.j.j.j.j.j.j.j.j.j.V             : M l $         .       . .   .                 . 2 j.",
"j.j.j.j.j.j.j.j.j.j.j.j.j.j.j.j.j.j.j.j.j.j.j.j.j.j.j.j.j.j.g           X ..h.g.2.s         . . .     .   . .     # .       j.j.",
"j.j.j.j.j.j.j.j.j.j.j.j.j.j.j.j.j.j.j.j.j.j.j.j.j.j.j.j.j.j.u       O   X ..h.h.h.s.n $ o o o     .       .     . k o   . . j.j.",
"j.j.j.j.j.j.j.j.j.j.j.j.j.j.j.j.j.j.j.j.j.j.j.j.j.j.j.j.j.j.2     @ j     > ,.h.h.h.g.1.,.,.,.U %       .   .   O k .     X j.j.",
"j.j.j.j.j.j.j.j.j.j.j.j.j.j.j.j.j.j.j.j.j.j.j.j.j.j.j.j.j.j.q     3 6   X   o n y.h.h.h.h.h.h.h.<.%       .     # p         j.j.",
"j.j.j.j.j.j.j.j.j.j.j.j.j.j.j.j.j.j.j.j.j.j.j.j.j.j.j.j.j.j.y     p % % t .     - ,.h.h.h.h.h.h.g.]             - e       . j.j.",
"j.j.j.j.j.j.j.j.j.j.j.j.j.j.j.j.j.j.j.j.j.j.j.j.j.j.j.j.j.j.a     k o 0 1       . @ [ g.h.h.h.h.h.y.: .     .   1 6       . j.j.",
"j.j.j.j.j.j.j.j.j.j.j.j.j.j.j.j.j.j.j.j.j.j.j.j.j.j.j.j.j.j.N X o c . j $   . .     $ ..h.h.h.h.h.h.M           9 <         j.j.",
"j.j.j.j.j.j.j.j.j.j.j.j.j.j.j.j.j.j.j.j.j.j.j.j.j.j.j.j.j.j.L X o z . c O .       .   3 y.h.h.h.h.h.}           p -         j.j.",
"j.j.j.j.j.j.j.j.j.j.j.j.j.j.j.j.j.j.j.j.j.j.j.j.j.j.j.j.j.j.L X @ c   c o     .     . X ] h.h.h.h.h.<.X         s & .       j.j.",
"j.j.j.j.j.j.j.j.j.j.j.j.j.j.j.j.j.j.j.j.j.j.j.j.j.j.j.j.j.j._ X O c   c X               w h.h.h.h.h.r..         z < 0       j.j.",
"j.j.j.j.j.j.j.j.j.j.j.j.j.j.j.j.#.9.0.j.j.j.j.j.j.j.j.j.j.j._ X O k   h o     .   .     % s.h.h.h.h.y.@ .   .   c < 9       j.j.",
"j.j.j.j.j.j.j.j.j.j.j.j.j.j.j.j.F H 5.h.a.u.p.u.u.6.@.>.j.j.&.- o c . . .     . .       o r.h.h.h.h.t.@         b : e       j.j.",
"j.j.j.j.j.j.j.j.j.j.j.j.j.j.j.j.X.Z S :.h.h.h.h.h.r.: f *.>.9.U . -           . .       O r.h.h.h.h.2.X         b < w       j.j.",
"j.j.j.j.j.j.j.j.j.j.j.j.j.j.j.j.;.F Z Z 3.h.h.h.h.g.5   q =.0.8.:           .           % s.h.h.h.h.<..         2 < 9       j.j.",
"j.j.j.j.j.j.j.j.j.j.j.j.j.j.a.u.u.3.A H $.h.h.h.h.h.0     z s.h.] X           . .       w h.h.h.h.h. ..           4 6     O j.j.",
"j.j.j.j.j.j.j.j.j.j.j.j.j.j.f.h.h.h.i.g.h.h.h.h.h.h.r     t g.h.s.h         .         X [ h.h.h.h.g.( @           $ @     # j.j.",
"j.j.j.j.j.j.j.j.j.j.j.j.j.j.j.{ 3 6 t P ..y.h.h.h.h.t   . s g.h.h.r.1               . t s.h.h.h.h.8.R ;     .           . j.j.j.",
"j.j.j.j.j.j.j.j.j.j.j.j.j.j.j.g         o 6 ..h.h.h.l     U h.h.h.h.2.1     .   . . w 2.h.h.h.h.h.| T w                 . j.j.j.",
"j.j.j.j.j.j.j.j.j.j.j.j.j.j.j.i             + } h.h.%.- > 2.h.h.h.h.h.r.n @ o o % J r.h.h.h.h.h.r.R T c         .     .   j.j.j.",
"j.j.j.j.j.j.j.j.j.j.j.j.j.j.j.a               : y.h.h.r.r.h.h.h.h.h.h.h.g.2.....r.h.h.h.h.h.h.h.+.Y Y K o           .     j.j.j.",
"j.j.j.j.j.j.j.j.j.j.j.j.j.j.j.L               . | h.h.h.h.h.h.h.h.h.g.h.h.h.h.h.h.h.h.h.h.h.h.p.j.T T Y %       .         j.j.j.",
"j.j.j.j.j.j.j.j.j.j.j.j.j.j.j.O.o           .   ! h.h.h.h.h.h.h.g.y.r.1.1.h.h.h.h.h.h.h.h.h.h.j.j.Q T R 3       .       O j.j.j.",
"j.j.j.j.j.j.j.j.j.j.j.j.j.j.j.j.8   X e 0 @     h [ ! U M n l h h h l n [ g.h.h.h.h.h.h.h.h.w.j.j.` T T r     .   .     = j.j.j.",
"j.j.j.j.j.j.j.j.j.j.j.j.j.j.j.j._ O @ m 4 <     h W ] } | ..,.<.1.8.r.y.y.g.h.h.h.h.h.h.h.p.j.j.j.j.Y T c .     .       j.j.j.j.",
"j.j.j.j.j.j.j.j.j.j.j.j.j.j.j.j.>.( 5 k @ .   + t s h t s t s t t s s s h r.h.h.h.h.h.h.a.j.j.j.j.j.T T M o       .   . j.j.j.j.",
"j.j.j.j.j.j.j.j.j.j.j.j.j.j.j.j.j.u.g.| 6 . . > J W ] ..<.2.y.s.g.s.s.g.h.h.h.h.h.h.h.f.j.j.j.j.j.j.R T K +           X j.j.j.j.",
"j.j.j.j.j.j.j.j.j.j.j.j.j.j.j.j.j.H i.g.g.1.1.1...] ! P n l t w w w t n y.h.h.h.h.h.d.j.j.j.j.j.j.j./ T I # . .       # j.j.j.j.",
"j.j.j.j.j.j.j.j.j.j.j.j.j.j.j.j.j.o.7.1.s.h.h.h.h.h.h.h.h.g.s.s.y.t.t.8.h.h.h.h.h.a.j.j.j.j.j.j.j.j.` T Y *   .       j.j.j.j.j.",
"j.j.j.j.j.j.j.j.j.j.j.j.j.j.j.j.+.d 5 %.h.h.h.j.j.j.h.h.h.h.h.h.h.h.h.h.h.h.h.h.j.j.j.j.j.j.j.j.j.j.' T R =   X       j.j.j.j.j.",
"j.j.j.j.j.j.j.j.j.j.j.j.j.j.j.d # 5 <.h.h.h.h.j.j.j.h.h.h.h.h.h.h.h.h.h.h.g.u.j.j.j.j.j.j.j.j.j.j.j.&.2.r.0         X j.j.j.j.j.",
"j.j.j.j.j.j.j.j.j.j.j.j.j.u + o M t.h.h.h.h.h.j.j.j.j.h.h.h.h.h.h.h.h.h.p.j.j.j.j.j.j.j.j.j.j.j.j.j.w.h.g.r         & j.j.j.j.j.",
"j.j.j.j.j.j.j.j.j.j.j.2 X   3 @.h.h.h.h.h.h.h.j.j.j.j.h.h.h.h.h.h.d.j.j.j.j.j.j.j.j.j.j.j.j.j.j.j.j.j.h.g.w         j.j.j.j.j.j.",
"j.j.j.j.j.j.j.j.j.* . . - W s.g.h.h.h.h.h.h.h.j.j.j.j.h.h.h.f.u.j.j.j.j.j.j.j.j.j.j.j.j.j.j.j.j.j.j.j.h.s.6         j.j.j.j.j.j.",
"j.j.j.j.j.j.j.+   X > W r.h.h.h.h.h.h.h.h.h.h.j.j.j.j.j.j.j.j.j.j.j.j.j.j.j.j.j.j.j.j.j.j.j.j.j.j.j.j.h.t.-       % j.j.j.j.j.j.",
"j.j.j.j.@   . # t j.j.j.h.h.h.h.h.h.h.h.h.h.f.j.j.j.j.j.j.j.j.j.j.j.j.j.j.j.j.j.j.j.j.j.j.j.j.j.j.j.a.h.<.#       j.j.j.j.j.j.j.",
"j.j.o   o : j.j.j.j.j.j.j.h.h.h.h.h.h.a.j.j.j.j.j.j.j.j.j.j.j.j.j.j.j.j.j.j.j.j.j.j.j.j.j.j.j.j.j.j.f.h.! .     o j.j.j.j.j.j.j.",
"j.& . 3 j.j.j.j.j.j.j.j.j.h.h.g.j.j.j.j.j.j.j.j.j.j.j.j.j.j.j.j.j.j.j.j.j.j.j.j.j.j.j.j.j.j.j.j.j.j.j.a.9       j.j.j.j.j.j.j.j.",
"j.j.j.j.j.j.j.j.j.j.j.j.j.j.j.j.j.j.j.j.j.j.j.j.j.j.j.j.j.j.j.j.j.j.j.j.j.j.j.j.j.j.j.j.j.j.j.j.j.j.j.j.& X   = j.j.j.j.j.j.j.j.",
"j.j.j.j.j.j.j.j.j.j.j.j.j.j.j.j.j.j.j.j.j.j.j.j.j.j.j.j.j.j.j.j.j.j.j.j.j.j.j.j.j.j.j.j.j.j.j.j.j.j.j.j.j.$ j.j.j.j.j.j.j.j.j.j.",
"j.j.j.j.j.j.j.j.j.j.j.j.j.j.j.j.j.j.j.j.j.j.j.j.j.j.j.j.j.j.j.j.j.j.j.j.j.j.j.j.j.j.j.j.j.j.j.j.j.j.j.j.j.j.j.j.j.j.j.j.j.j.j.j.",
"j.j.j.j.j.j.j.j.j.j.j.j.j.j.j.j.j.j.j.j.j.j.j.j.j.j.j.j.j.j.j.j.j.j.j.j.j.j.j.j.j.j.j.j.j.j.j.j.j.j.j.j.j.j.j.j.j.j.j.j.j.j.j.j.",
"j.j.j.j.j.j.j.j.j.j.j.j.j.j.j.j.j.j.j.j.j.j.j.j.j.j.j.j.j.j.j.j.j.j.j.j.j.j.j.j.j.j.j.j.j.j.j.j.j.j.j.j.j.j.j.j.j.j.j.j.j.j.j.j.",
"j.j.j.j.j.j.j.j.j.j.j.j.j.j.j.j.j.j.j.j.j.j.j.j.j.j.j.j.j.j.j.j.j.j.j.j.j.j.j.j.j.j.j.j.j.j.j.j.j.j.j.j.j.j.j.j.j.j.j.j.j.j.j.j.",
"j.j.j.j.j.j.j.j.j.j.j.j.j.j.j.j.j.j.j.j.j.j.j.j.j.j.j.j.j.j.j.j.j.j.j.j.j.j.j.j.j.j.j.j.j.j.j.j.j.j.j.j.j.j.j.j.j.j.j.j.j.j.j.j.",
"j.j.j.j.j.j.j.j.j.j.j.j.j.j.j.j.j.j.j.j.j.j.j.j.j.j.j.j.j.j.j.j.j.j.j.j.j.j.j.j.j.j.j.j.j.j.j.j.j.j.j.j.j.j.j.j.j.j.j.j.j.j.j.j.",
"j.j.j.j.j.j.j.j.j.j.j.j.j.j.j.j.j.j.j.j.j.j.j.j.j.j.j.j.j.j.j.j.j.j.j.j.j.j.j.j.j.j.j.j.j.j.j.j.j.j.j.j.j.j.j.j.j.j.j.j.j.j.j.j."
};
