/* XPM */
static char *result[] = {
/* columns rows colors chars-per-pixel */
"64 64 116 2 ",
"   c #11100E",
".  c #161513",
"X  c #181715",
"o  c #1A1917",
"O  c #1D1C1A",
"+  c #201E1C",
"@  c #2D280F",
"#  c #22201E",
"$  c #252220",
"%  c #292622",
"&  c #2B2927",
"*  c #2E2C2A",
"=  c #312C27",
"-  c #322E2A",
";  c #3E2D2A",
":  c #34312F",
">  c #353331",
",  c #393736",
"<  c #3C3936",
"1  c #3E3C3B",
"2  c #443D1B",
"3  c #433B35",
"4  c #433F3B",
"5  c #655711",
"6  c #44413F",
"7  c #4D443C",
"8  c #464442",
"9  c #4A4644",
"0  c #4A4A49",
"q  c #524941",
"w  c #524D4B",
"e  c #56514F",
"r  c #5D5349",
"t  c #555351",
"y  c #5B5654",
"u  c #5D5956",
"i  c #5D5B59",
"p  c #655C43",
"a  c #60554C",
"s  c #665A50",
"d  c #685E55",
"f  c #625C5B",
"g  c #72655B",
"h  c #776A5E",
"j  c #656564",
"k  c #706F6E",
"l  c #747472",
"z  c #787776",
"x  c #797978",
"c  c #9E6661",
"v  c #9F6A65",
"b  c #867669",
"n  c #817E7D",
"m  c #BCA20F",
"M  c #80807F",
"N  c #8C837B",
"B  c #948374",
"V  c #858584",
"C  c #8D8D8C",
"Z  c #91908F",
"A  c #939392",
"S  c #989897",
"D  c #999999",
"F  c #AF9B89",
"G  c #A09F9F",
"H  c #B0A193",
"J  c #BBA492",
"K  c #A4A3A3",
"L  c gray67",
"P  c #B4ABA4",
"I  c #B0B0AF",
"U  c #B4B4B3",
"Y  c #BCBCBC",
"T  c #FB9B93",
"R  c #FAA59A",
"E  c #D0B7A3",
"W  c #C0BBBA",
"Q  c #FCB5AF",
"!  c #F9B8AA",
"~  c #C5C0BF",
"^  c #D3C6BC",
"/  c #F3C2AF",
"(  c #E2C8B2",
")  c #FAC2B7",
"_  c #C3C3C3",
"`  c #CAC6C4",
"'  c #CCC8C7",
"]  c #CDCBCA",
"[  c #D7CDC5",
"{  c #D1CECD",
"}  c #D9D4CF",
"|  c #D7D7D6",
" . c #DAD7D6",
".. c #D8D8D7",
"X. c #DCDBDB",
"o. c #E6C3C0",
"O. c #FCCDC9",
"+. c #F7DECE",
"@. c #FCDCD6",
"#. c #F5E0CE",
"$. c #F8E5D7",
"%. c #F7E7DB",
"&. c #F8E7D9",
"*. c #F9EADD",
"=. c #E4E3E3",
"-. c #E9E7E7",
";. c #EBEBEB",
":. c #F0E8E2",
">. c #F9EDE3",
",. c #F0EFEE",
"<. c #FBF3ED",
"1. c #F3F3F3",
"2. c #FBF7F3",
"3. c #FCF9F6",
"4. c #FEFEFD",
"5. c None",
/* pixels */
"5.5.5.5.5.5.5.5.5.5.5.5.5.5.5.5.5.5.5.5.5.5.5.5.5.5.5.5.5.5.5.5.5.5.5.5.5.5.5.5.5.5.5.5.5.5.5.5.5.5.5.5.5.5.5.5.5.5.5.5.5.5.5.5.",
"5.5.5.5.5.5.5.5.5.5.5.5.5.5.5.5.5.5.5.5.5.5.5.5.5.5.5.5.5.5.5.5.5.5.5.5.5.5.5.5.5.5.5.5.5.5.5.5.5.5.5.5.5.5.5.5.5.5.5.5.5.5.5.5.",
"5.5.5.5.5.5.5.5.5.5.5.5.5.5.5.5.5.5.5.5.5.5.5.5.5.5.5.5.5.5.5.5.5.5.5.5.5.5.5.5.5.5.5.5.5.5.5.5.5.5.5.5.5.5.5.5.5.5.5.5.5.5.5.5.",
"5.5.5.5.5.5.5.5.5.5.5.5.5.5.5.5.5.5.5.5.5.5.5.5.5.5.5.5.5.5.5.5.5.5.5.5.5.5.5.5.5.5.5.5.5.5.5.5.5.5.5.5.5.5.5.5.5.5.5.5.5.5.5.5.",
"5.5.5.5.5.5.5.5.5.5.5.5.5.5.5.5.5.5.5.5.5.5.5.5.5.5.5.5.5.5.5.5.5.5.5.5.5.5.5.5.5.5.5.5.5.5.5.5.5.5.5.5.5.5.5.5.5.5.5.5.5.5.5.5.",
"5.5.5.5.5.5.5.5.5.5.5.5.5.5.5.5.5.5.5.5.5.5.5.5.5.5.5.5.5.5.5.5.5.5.5.5.5.5.5.5.5.5.5.5.5.5.5.5.5.5.5.5.5.5.5.5.5.5.5.5.5.5.5.5.",
"5.5.5.5.5.5.5.5.5.5.5.5.5.5.5.5.5.5.5.5.5.5.5.5.5.5.5.5.5.5.5.5.5.5.5.5.5.5.5.5.5.5.5.5.5.5.5.5.5.5.5.5.5.5.5.5.5.5.5.5.5.5.5.5.",
"5.5.5.5.5.5.5.5.5.5.5.5.5.5.5.5.5.5.5.5.5.5.5.5.5.5.5.5.5.5.5.5.5.5.5.5.5.5.5.5.5.5.5.5.5.5.5.5.5.5.5.5.5.5.5.5.5.5.5.5.5.5.5.5.",
"5.5.5.5.5.5.5.5.5.5.5.5.5.5.5.5.5.5.5.5.5.5.5.5.5.5.5.5.5.5.5.5.5.5.5.5.5.5.5.5.5.5.5.5.5.5.5.5.5.5.5.5.5.5.5.5.5.5.5.5.5.5.5.5.",
"5.5.5.5.5.5.5.5.5.5.5.5.5.5.5.5.5.5.5.5.5.5.5.5.5.5.5.5.5.5.5.5.5.5.5.5.5.5.5.5.5.5.5.5.5.5.5.5.5.5.5.5.5.5.5.5.5.5.5.5.5.5.5.5.",
"5.5.5.5.5.5.5.5.5.5.5.5.5.5.5.5.5.5.5.5.5.5.5.5.5.5.5.5.5.5.5.5.5.5.5.5.5.5.5.5.5.5.5.5.5.5.5.5.5.5.5.5.5.5.5.5.5.5.5.5.5.5.5.5.",
"5.5.5.5.5.5.5.5.5.5.5.5.5.5.5.5.5.5.5.5.5.5.5.5.5.5.5.5.5.5.5.5.5.5.5.5.5.5.5.5.5.5.5.5.5.5.5.5.5.5.5.5.5.5.5.5.5.5.5.5.5.5.5.5.",
"5.5.5.5.5.5.5.5.5.5.5.5.5.5.5.5.5.5.5.5.5.5.5.5.5.5.5.5.5.5.5.5.5.5.5.5.5.5.5.5.5.5.5.5.5.5.5.5.5.5.5.5.5.5.5.5.5.5.5.5.5.5.5.5.",
"5.5.5.5.5.5.5.5.5.5.5.5.5.5.5.5.5.5.5.5.5.5.5.5.5.5.5.5.5.5.5.5.5.5.5.5.5.5.5.5.5.5.5.5.5.5.5.5.5.5.5.5.5.5.5.5.5.5.5.5.5.5.5.5.",
"5.5.5.5.5.5.5.5.5.5.5.5.5.5.5.5.5.5.5.5.5.5.5.5.5.5.5.5.5.5.5.5.5.5.5.5.5.5.5.5.5.5.5.5.5.5.5.5.5.5.5.5.5.5.5.5.5.5.5.5.5.5.5.5.",
"5.5.5.5.5.5.5.5.5.5.5.5.5.5.5.5.5.5.5.5.5.5.5.5.5.5.5.5.5.5.5.5.5.5.5.5.5.5.5.5.5.5.5.5.5.5.5.5.5.5.5.5.5.5.5.5.5.5.5.5.5.5.5.5.",
"5.5.5.5.5.5.5.5.5.5.5.5.5.5.5.5.5.5.5.5.5.5.5.5.5.5.5.5.5.5.5.5.5.5.5.5.5.5.5.5.5.5.5.5.5.5.5.5.5.5.5.5.5.5.5.5.5.5.5.5.5.5.5.5.",
"5.5.5.5.5.5.5.5.5.5.5.5.5.5.5.5.5.5.5.5.5.5.5.5.5.5.5.5.5.5.5.5.5.5.5.5.5.5.5.5.5.5.5.5.5.5.5.5.5.5.5.5.5.5.5.5.5.5.5.5.5.5.5.5.",
"5.5.5.5.5.5.5.5.5.5.5.5.5.5.5.5.5.5.5.5.5.5.5.5.5.5.5.5.5.5.5.5.5.5.5.5.5.5.5.5.5.5.5.5.5.5.5.5.5.5.5.5.5.5.5.5.5.5.5.5.5.5.5.5.",
"5.5.5.5.5.5.5.5.5.5.5.5.5.5.5.5.5.5.5.5.5.5.5.5.5.5.5.5.5.5.5.5.5.5.5.5.5.5.5.5.5.5.5.5.5.5.5.5.5.5.5.5.5.5.5.5.5.5.5.5.5.5.5.5.",
"5.5.5.5.5.5.5.5.5.5.5.5.5.5.5.5.5.5.5.5.5.5.5.5.5.5.5.5.5.5.5.5.5.5.5.5.5.5.5.5.5.5.5.5.5.5.5.5.5.5.5.5.5.5.5.5.5.5.5.5.5.5.5.5.",
"5.5.5.5.5.5.5.5.5.5.5.5.5.5.5.5.5.5.5.5.5.5.5.5.5.5.5.5.5.5.5.5.5.5.5.5.5.5.5.5.5.5.5.5.5.5.5.5.5.5.5.5.5.5.5.5.5.5.5.5.5.5.5.5.",
"5.5.5.5.5.5.5.5.5.5.5.5.5.5.5.5.5.5.5.5.5.5.5.5.5.5.5.5.5.5.5.5.5.5.5.5.5.5.5.5.5.5.5.5.5.5.5.5.5.5.5.5.5.5.5.5.5.5.5.5.5.5.5.5.",
"5.5.5.5.5.5.5.5.5.5.5.5.5.5.5.5.5.5.5.5.5.5.5.5.5.5.5.5.5.5.5.5.5.5.5.5.5.5.5.5.5.5.5.5.5.5.5.5.5.5.5.5.5.5.5.5.5.5.5.5.5.5.5.5.",
"5.5.5.5.5.5.5.5.5.5.5.5.5.5.5.5.5.5.5.5.5.5.5.5.5.5.5.5.5.5.5.5.5.5.5.5.5.5.5.5.5.5.5.5.5.5.5.5.5.5.5.5.5.5.5.5.5.5.5.5.5.5.5.5.",
"5.5.5.5.5.5.5.5.5.5.5.5.5.5.5.5.5.5.5.5.5.5.5.5.5.5.5.= o . . . . . X + * 7 5.5.5.5.5.5.5.5.5.5.5.5.5.5.5.5.5.5.5.5.5.5.5.5.5.5.",
"5.5.5.5.! +.5.5.5.5.5.5.5.5.5.5.5.5.5.5.5.5.5.q o . o . . . . o O + # X . X . . X $ - $ O > j 5.5.5.5.5.5.5.5.5.5.5.5.5.5.5.5.5.",
"5.5.5.5.R Q 2.5.5.5.5.5.5.5.5.5.5.5.5.5.5.% X > w f 1 . . w f u t w w & . . . . X . X . X . . . b 5.5.5.5.5.5.5.5.5.5.5.5.5.5.5.",
"5.5.@.>.) T O.3.N H +.5.5.5.5.5.5.J s X + 8 i 1 X . . O : . . . . . . $ : 1 , . . . X X . X . . . 5.5.5.5.5.5.5.5.5.5.5.5.5.5.5.",
"5.5.T o.u c v n O u 4.4.8 a ^ [ O . . . - + > O . 1 y u , X . . . $ . 9 1 & O . X . . . . . . . . . 5.5.5.5.5.5.5.5.5.5.5.5.5.5.",
"5.5./ ; X X X X . x 4.4.t   | K . . . . . . =.S o : . . . . . 8 Y 4.=.x o X . . X . . . X . . . . . . 5.5.5.5.5.5.5.5.5.5.5.5.5.",
"5.5.B & . . . . 1 ;.S I S 1 3.U . . . . . . D 3.u . . . . & A 3.4.4.4.4._ & . . . . X X . . . . . . . O 5.5.5.5.5.5.5.5.5.5.5.5.",
"5.5.d p X . . . 8 C L V U 1.4.;.+ . o . . . 1 4.4.U C A Y ;.W { 4.4.4.4.4.=.1 . . . . . > 9 o . t & . . # 5.5.5.5.5.5.5.5.5.5.5.",
"5.5.u m 5 . . . i A V l x 1.4.4.k . . . . . + 3.4.4.4.3.W { 1.4.4.4.4.4.4.4.,.j . . . . . - w y + 8 u - . - 5.5.5.5.5.5.5.5.5.5.",
"5.5.` 2 @ . . o l D I X.4.4.4.4.1., . . . . & 4.4.4.4.1.1.4.4.4.4.4.4.4.*.N 9 t , . . X . . . $ 8 o o $ . . - 5.5.5.5.5.5.5.5.5.",
"5.5.5.5.| V j X.4.4.4.4.4.4.4.4.4.;.0 . . . Z 4.4.4.4.4.4.4.4.4.4.3.&.5.5.k X X . . . . . . . . . . . . . . . % 5.5.5.5.5.5.5.5.",
"5.5.5.5.5.5.5.5.5.5.5.*.2.4.4.4.4.4.3._ G ] 4.4.4.4.4.4.4.4.3.>.5.5.5.5.5.5.. . . . . . . . . . . . . . X . X . o 5.5.5.5.5.5.5.",
"5.5.5.5.5.5.5.5.5.5.5.5.5.5.>.4.4.4.,.] 4. .4.4.4.4.4.2.%.5.5.5.5.5.5.5.5.5.6 o 8 . . X . . g 5.3 + . . X . . . X . % 5.5.5.5.5.",
"5.5.5.5.5.5.5.5.5.5.5.5.5.5.5.5.<.4.4.=.W ' -.4.4.>.5.5.5.5.5.5.5.5.5.5.5.5.5.o w & $ . . - r 5.5.5.5.5.5.- O . . . . . 5.5.5.5.",
"5.5.5.5.5.5.5.5.5.5.5.5.5.5.5.5.5.L ,.4.,.{ W 4.4.*.5.5.5.5.5.5.5.5.5.5.5.5.5.B o w y # . u = 5.5.5.5.5.5.5.5.5.5.+ X . . 5.5.5.",
"5.5.5.5.5.5.5.5.5.5.5.5.5.5.5.5.5.r > ] 4.4.X.1.4.>.5.5.5.5.5.5.5.5.5.5.5.5.5.5.F 3 o 9 o w O 5.5.5.5.5.5.5.5.5.5.5.% X X 5.5.5.",
"5.5.5.5.5.5.5.5.5.5.5.5.5.5.5.5.5.5.. o  .4.4.4.3.>.5.5.5.5.5.5.5.5.5.5.5.5.5.5.5.5.B > j j , 5.5.5.5.5.5.5.5.5.5.5.5.. . . 5.5.",
"5.5.5.5.5.5.5.5.5.5.5.5.5.5.5.5.5.5.. . E >.4.4.` >.5.5.5.5.5.5.5.5.5.5.5.5.5.5.5.5.5.2.4.4.:.5.5.5.5.5.5.5.5.5.5.5.5.5.. . 5.5.",
"5.5.5.5.5.5.5.5.5.5.5.5.5.5.5.5.5.5.. . 7 ( 2.4.` >.5.5.5.5.5.5.5.5.5.5.5.5.5.5.5.5.5.4.4.4.5.5.5.5.5.5.5.5.5.5.5.5.5.5.. . 5.5.",
"5.5.5.5.5.5.5.5.5.5.5.5.5.5.5.5.5.5.5.. . g $.4. .*.5.5.5.5.5.5.5.5.5.5.5.5.5.5.5.5.4.4.4.<.5.5.5.5.5.5.5.5.5.5.5.5.5.5.o . 5.5.",
"5.5.5.5.5.5.5.5.5.5.5.5.5.5.5.5.5.5.5.5.5.5.5.4.4.&.5.5.5.5.5.5.5.5.5.5.5.5.5.5.<.4.4.4.<.5.5.5.5.5.5.5.5.5.5.5.5.5.5.5.5.. . 5.",
"5.5.5.5.5.5.5.5.5.5.5.5.5.5.5.5.5.5.5.5.5.5.5.4.4.5.5.5.5.5.5.5.5.5.5.5.5.5.5.5.<.>.5.5.5.5.5.5.5.5.5.5.5.5.5.5.5.5.5.5.5.. . 5.",
"5.5.5.5.5.5.5.5.5.5.5.5.5.5.5.5.5.5.5.5.5.5.$.4.4.5.5.5.5.5.5.5.5.5.5.5.5.5.5.5.5.5.5.5.5.5.5.5.5.5.5.5.5.5.5.5.5.5.5.5.5.5.. 5.",
"5.5.5.5.5.5.5.5.5.5.5.5.5.5.5.5.5.5.5.5.5.5.4.3.5.5.5.5.5.5.5.5.5.5.5.5.5.5.5.5.5.5.5.5.5.5.5.5.5.5.5.5.5.5.5.5.5.5.5.5.5.5.5.5.",
"5.5.5.5.5.5.5.5.5.5.5.5.5.5.5.5.5.5.5.5.5.5.5.5.5.5.5.5.5.5.5.5.5.5.5.5.5.5.5.5.5.5.5.5.5.5.5.5.5.5.5.5.5.5.5.5.5.5.5.5.5.5.5.5.",
"5.5.5.5.5.5.5.5.5.5.5.5.5.5.5.5.5.5.5.5.5.5.5.5.5.5.5.5.5.5.5.5.5.5.5.5.5.5.5.5.5.5.5.5.5.5.5.5.5.5.5.5.5.5.5.5.5.5.5.5.5.5.5.5.",
"5.5.5.5.5.5.5.5.5.5.5.5.5.5.5.5.5.5.5.5.5.5.5.5.5.5.5.5.5.5.5.5.5.5.5.5.5.5.5.5.5.5.5.5.5.5.5.5.5.5.5.5.5.5.5.5.5.5.5.5.5.5.5.5.",
"5.5.5.5.5.5.5.5.5.5.5.5.5.5.5.5.5.5.5.5.5.5.5.5.5.5.5.5.5.5.5.5.5.5.5.5.5.5.5.5.5.5.5.5.5.5.5.5.5.5.5.5.5.5.5.5.5.5.5.5.5.5.5.5.",
"5.5.5.5.5.5.5.5.5.5.5.5.5.5.5.5.5.5.5.5.5.5.5.5.5.5.5.5.5.5.5.5.5.5.5.5.5.5.5.5.5.5.5.5.5.5.5.5.5.5.5.5.5.5.5.5.5.5.5.5.5.5.5.5.",
"5.5.5.5.5.5.5.5.5.5.5.5.5.5.5.5.5.5.5.5.5.5.5.5.5.5.5.5.5.5.5.5.5.5.5.5.5.5.5.5.5.5.5.5.5.5.5.5.5.5.5.5.5.5.5.5.5.5.5.5.5.5.5.5.",
"5.5.5.5.5.5.5.5.5.5.5.5.5.5.5.5.5.5.5.5.5.5.5.5.5.5.5.5.5.5.5.5.5.5.5.5.5.5.5.5.5.5.5.5.5.5.5.5.5.5.5.5.5.5.5.5.5.5.5.5.5.5.5.5.",
"5.5.5.5.5.5.5.5.5.5.5.5.5.5.5.5.5.5.5.5.5.5.5.5.5.5.5.5.5.5.5.5.5.5.5.5.5.5.5.5.5.5.5.5.5.5.5.5.5.5.5.5.5.5.5.5.5.5.5.5.5.5.5.5.",
"5.5.5.5.5.5.5.5.5.5.5.5.5.5.5.5.5.5.5.5.5.5.5.5.5.5.5.5.5.5.5.5.5.5.5.5.5.5.5.5.5.5.5.5.5.5.5.5.5.5.5.5.5.5.5.5.5.5.5.5.5.5.5.5.",
"5.5.5.5.5.5.5.5.5.5.5.5.5.5.5.5.5.5.5.5.5.5.5.5.5.5.5.5.5.5.5.5.5.5.5.5.5.5.5.5.5.5.5.5.5.5.5.5.5.5.5.5.5.5.5.5.5.5.5.5.5.5.5.5.",
"5.5.5.5.5.5.5.5.5.5.5.5.5.5.5.5.5.5.5.5.5.5.5.5.5.5.5.5.5.5.5.5.5.5.5.5.5.5.5.5.5.5.5.5.5.5.5.5.5.5.5.5.5.5.5.5.5.5.5.5.5.5.5.5.",
"5.5.5.5.5.5.5.5.5.5.5.5.5.5.5.5.5.5.5.5.5.5.5.5.5.5.5.5.5.5.5.5.5.5.5.5.5.5.5.5.5.5.5.5.5.5.5.5.5.5.5.5.5.5.5.5.5.5.5.5.5.5.5.5.",
"5.5.5.5.5.5.5.5.5.5.5.5.5.5.5.5.5.5.5.5.5.5.5.5.5.5.5.5.5.5.5.5.5.5.5.5.5.5.5.5.5.5.5.5.5.5.5.5.5.5.5.5.5.5.5.5.5.5.5.5.5.5.5.5.",
"5.5.5.5.5.5.5.5.5.5.5.5.5.5.5.5.5.5.5.5.5.5.5.5.5.5.5.5.5.5.5.5.5.5.5.5.5.5.5.5.5.5.5.5.5.5.5.5.5.5.5.5.5.5.5.5.5.5.5.5.5.5.5.5.",
"5.5.5.5.5.5.5.5.5.5.5.5.5.5.5.5.5.5.5.5.5.5.5.5.5.5.5.5.5.5.5.5.5.5.5.5.5.5.5.5.5.5.5.5.5.5.5.5.5.5.5.5.5.5.5.5.5.5.5.5.5.5.5.5."
};
