/* XPM */
static char *ee860f0c497a4722f8b0657a6cc56eb37Z2b0je807gLXToO[] = {
/* columns rows colors chars-per-pixel */
"64 64 206 2 ",
"   c None",
".  c #0E0100",
"X  c #0D0D0D",
"o  c #0A0704",
"O  c #150C04",
"+  c #1B0E04",
"@  c #130E0B",
"#  c #190E09",
"$  c #180500",
"%  c #16120E",
"&  c #1C130C",
"*  c #151E0B",
"=  c #0E0F11",
"-  c #100F14",
";  c #0E1216",
":  c #151414",
">  c #1A1512",
",  c #1C1915",
"<  c #151619",
"1  c #1C1A1A",
"2  c #161919",
"3  c #240F00",
"4  c #211102",
"5  c #2A1605",
"6  c #22150B",
"7  c #241A0E",
"8  c #2E1C0C",
"9  c #291709",
"0  c #301F0E",
"q  c #211612",
"w  c #231B14",
"e  c #2B1D12",
"r  c #221D1B",
"t  c #1F2B1D",
"y  c #2A2117",
"u  c #22211D",
"i  c #2D241B",
"p  c #232215",
"a  c #332316",
"s  c #342519",
"d  c #342A1F",
"f  c #3C2817",
"g  c #1A1D21",
"h  c #171C20",
"j  c #211F20",
"k  c #1F2022",
"l  c #222224",
"z  c #2A2625",
"x  c #2B2925",
"c  c #2C2A2B",
"v  c #242929",
"b  c #352B23",
"n  c #322D2B",
"m  c #352B26",
"M  c #3A3224",
"N  c #35312D",
"B  c #3A322A",
"V  c #2A2E33",
"C  c #343433",
"Z  c #3B3633",
"A  c #393937",
"S  c #3D3C3B",
"D  c #2D3528",
"F  c #463324",
"G  c #40332A",
"H  c #523A24",
"J  c #423D3B",
"K  c #4B3C36",
"L  c #503E30",
"P  c #4C463E",
"I  c #4A413B",
"U  c #57483C",
"Y  c #674937",
"T  c #393E42",
"R  c #403E41",
"E  c #454343",
"W  c #4B4846",
"Q  c #4D4A4A",
"!  c #484647",
"~  c #5A4D42",
"^  c #514D4B",
"/  c #575349",
"(  c #565455",
")  c #585757",
"_  c #6C5643",
"`  c #645649",
"'  c #7E5E4E",
"]  c #625953",
"[  c #6E5F51",
"{  c #6D655A",
"}  c #74665B",
"|  c #756355",
" . c #715C61",
".. c #5C6165",
"X. c #6E6E6D",
"o. c #6A6663",
"O. c #796B65",
"+. c #756A68",
"@. c #737277",
"#. c #82574B",
"$. c #826757",
"%. c #847360",
"&. c #8A7567",
"*. c #917869",
"=. c #877C74",
"-. c #97816C",
";. c #948573",
":. c #84917F",
">. c #A58E7A",
",. c #A18B76",
"<. c #AA947F",
"1. c #968A84",
"2. c #9B9786",
"3. c #949596",
"4. c #989897",
"5. c #A78C8A",
"6. c #A79586",
"7. c #B19884",
"8. c #AD8F97",
"9. c #A29E9B",
"0. c #AA9590",
"q. c #9EA09D",
"w. c #B5A396",
"e. c #9BA1A1",
"r. c #A9A9A6",
"t. c #A4A2A3",
"y. c #B6ACA5",
"u. c #B1B1B3",
"i. c #BABABB",
"p. c #C5AE9C",
"a. c #C1A5A1",
"s. c #C6B8AE",
"d. c #C8B7AA",
"f. c #C4A6B0",
"g. c #C6B9B4",
"h. c #C6C1BD",
"j. c #DDCDBD",
"k. c #D7C3B9",
"l. c #E2CAB7",
"z. c #E5D0BF",
"x. c #D9BDC8",
"c. c #CDCCCC",
"v. c #C8C8C4",
"b. c #DBCBC2",
"n. c #D4CECB",
"m. c #DCC3CB",
"M. c #D9D2CC",
"N. c #D1D0CE",
"B. c #CECFD1",
"V. c #CED2D5",
"C. c #D1D2D3",
"Z. c #DAD7D5",
"A. c #DBDCDC",
"S. c #D6D7D8",
"D. c #E7C8CE",
"F. c #E5D4C7",
"G. c #E3D5CB",
"H. c #ECDACC",
"J. c #E8D7CB",
"K. c #F5DBC6",
"L. c #F2DCCB",
"P. c #F1D5C7",
"I. c #EACFD6",
"U. c #EFD5D7",
"Y. c #E4DBD4",
"T. c #ECDFD3",
"R. c #E3DADD",
"E. c #F1DED1",
"W. c #DDE5CE",
"Q. c #DFE1DE",
"!. c #E3E1DD",
"~. c #EAE3DD",
"^. c #F4E3D5",
"/. c #FBE5D5",
"(. c #F4EAD5",
"). c #F3E6DC",
"_. c #FEEBDC",
"`. c #F9E6DA",
"'. c #F5E5CB",
"]. c #DBDFE2",
"[. c #ECDBE3",
"{. c #FADEE4",
"}. c #F3D9E4",
"|. c #E2E2E3",
" X c #EBE7E3",
".X c #ECE9E6",
"XX c #E3E6E8",
"oX c #EBEBEB",
"OX c #E7EBEE",
"+X c #F5E9E1",
"@X c #FCEDE3",
"#X c #F1EDEA",
"$X c #F9E5E8",
"%X c #FFF3E5",
"&X c #F2F1EE",
"*X c #FDF4EB",
"=X c #FFFAED",
"-X c #EEEFF3",
";X c #EFF1F4",
":X c #F4F4F4",
">X c #FDF4F3",
",X c #FEFAF4",
"<X c #F3F6F9",
"1X c #FFF7FD",
"2X c #F5FAFE",
"3X c #FDFEFD",
/* pixels */
"                                                                                                                                ",
"                                                                                                                                ",
"                                                                                                                                ",
"                                                                                                                                ",
"                                                                                                                                ",
"                                                                                                                                ",
"                                                          j.(.                                                                  ",
"                                              P.*.$.    ;.M 2.W.                                                                ",
"                                              `.a.5.  b.O p * :.                                                                ",
"                                          } b.@XU.5.g.O.P / D t                                                                 ",
"                                          0.>X{.D.8.m. .K ^ x 2 #.                                                              ",
"                                        &.k.U.I.x.f.{.m.q m 1 > Y                                                               ",
"                                        E.@X>X$X$Xx.}.1X+.z : 1 '                                                               ",
"                                      L.@X,X,X1X3XR.[.$X1.: @ @                                                                 ",
"                                      ^.%X,X,X,X3X>X3X3X9.l 1 1                                                                 ",
"                                    '.(.=X,X3X3X3X<X3X3XQ.A v C $.                                                              ",
"                                    +X,X3X3X3X3X3X3X3X,X>XG.` } %.*.6.                                                          ",
"                                  E.@X,X,X3X3X3X<X:X3X3X,X+Xb.[ %.*.;.>.                                                        ",
"                                F.`.*X*X!.:X3X3XA.A.&X3X,X,XG.6.%.%.,.7.                                                        ",
"                                G.=X*X Xn.<X2X3XC.c.R.>X,X@XT.F.<.-.>.                                                          ",
"                                Y.,X*XZ.|.<X3X3XB.c.N. XY.s.j.E.l.                                                              ",
"                              s.M.3X,X#X&X<X3X3XC.C.Z.Y.] =.T.H.                                                                ",
"                              =.Y.3X3X3X<Xc.3X3XXX|..X9.& ` H.J.                                                                ",
"                            w.O.3X3X3X3XoXi.3X3X3X3X&Xo.i b s.F.                                                                ",
"                            U y.3X3X3X2XOXA.OX3X3X3XoXZ q w ~ b.                                                                ",
"                            K g.3X3X3X3X2X;X2X3X3X3XA.C , O i ~ k.                                                              ",
"                            G n.3X3X3X3X3X3X3X3X3X3X!.N , & & w s w.                                                            ",
"                            b ~.3X3X3X3X3X3X3X3X3X3X<XQ r > > @ e 7 ~                                                           ",
"                            b  X3X3X3X3X3X3X3X3X2X2X;X4.o : , > % % y b 6.                                                      ",
"                            B Z.,X3X3X3X3X3X3X3XXXXX3X|.E 2 X : X u P w i [                                                     ",
"                            B i.3X3X3X3X3X3X3X3XS.V.<X-Xi.k 1 2 : q.r., & d [                                                   ",
"                            Z r.3X3X3X3X3X3X3X3XXXV.<X3XoXu.) C e.v.3., + O s _                                                 ",
"                            P ] 2X3X2X3X3X3X,X*XG.k.,X,X,X3X2X2X3X&XE : x n > # }                                               ",
"                              Z oX3X3X3X3X3XoXM.Y.b.,X,X,X3X3X2X,X:XC 1 1 Q m > q 1.                                            ",
"                              r 4.oX3X3X3X3X Xh.@X).,X3X3X3X3X3X,X&Xu c x Z W r w K                                             ",
"                              @ N M.,X3X3X3XoXc.,X,X3X3X3X3X3X3X,X&Xx C I c J r O a |                                           ",
"                              , i +..X3X3X3X:X|.3X3X3X3X3X3X3X3X:X,XA x J ^ r > @ O s                                           ",
"                              @ 4 6 y.#X3X3X3X<X3X3X3X3X3X3X3X3X3XoXW , r E N w & + e U                                         ",
"                              w 5 9 y.~.3X3X3X3X3X3X3X3X3X3X3X3X3X.XX.1 @ 1 J r > & & 4                                         ",
"                            M % 5 F G.~.:X3X3X3X3X3X3X3X3X3X3X3X3XoX9.: : 2 r > & q & e `                                       ",
"                            i % $ 6.j.+X,X3X3X3X3X3X3X3X3X3X3X3X3X&Xc.C X < c Q r r w & +                                       ",
"                          f & % _ d.F.@X,X3X3X,X#X,X3X3X3X3X3X3X3X3X3X( l : 2 R E Z J & e `                                     ",
"                          . + n p.l.E.@X,X,X,X*XT.).*X,X3X3X3X3X:X3X:Xc.c 1 < l Q Z ^ N 7 +                                     ",
"                          5 d =.z.H.^.*X,X=X@X^.    ^.%X,X>X2X].!.3X3X|.u.< - < c 1 n W w i {                                   ",
"                          5 B v.J.H.`.=X=X%X/.          Y.g.X.E Z S o.t.oX@.l : : X 1 Z & & y                                   ",
"                        H 5 P !.J.^.%X=X%X/.K.          2.n l g u , r X l 3.V g < X j , % & +                                   ",
"                          8 { A.G.).=X=X_.L.            I w X ; % % % 1 : < 1 ; 2 : r : > & p                                   ",
"                          . 1.v.Y.+X=X*X/.              $ > < h , > : : : 1 < < < 2 X , % % w /                                 ",
"                          Y     J._.=X_.K.              i # # , > & & & , > : > > > , r % @ i )                                 ",
"                                H._.%X_.                6 # i N & & > > > % : , > > : , % % , +.                                ",
"                                H./._./.                6 & Z W : : : : : : : > : : : > , % %                                   ",
"                                  L.                    . & N ^ < = < : : : : : : 1 l @ , X 1                                   ",
"                                                        w & n ( g T ; ; 2 < : : l C A : : 1 o.                                  ",
"                                                          w x ( V ..< < : : : : x S Z > : 1                                     ",
"                                                          , 1 A v ( v < : : > > > i , & x +.                                    ",
"                                                          J : 1 l C v 2 > & & & + 6 + y ]                                       ",
"                                                            % : : : > o w a 6 8 f F |                                           ",
"                                                            N > > & + e                                                         ",
"                                                              @ & & 7 a                                                         ",
"                                                              & & & e F                                                         ",
"                                                          / M O & + e L                                                         ",
"                                                  Y f 4 e 7 . 6 O & a                                                           ",
"                                                  3 8 0 s                                                                       ",
"                                                                                                                                "
};
